# https://github.com/mikedh/trimesh
v 0.02789915 0.06663869 0.07730974
v 0.02589878 0.06663869 0.07703681
v 0.02589878 0.06463839 0.07696858
v 0.02789915 0.06463839 0.07703681
v 0.02989951 0.06663869 0.07721227
v 0.02980075 0.06880206 0.07668591
v 0.02804154 0.06878032 0.07669566
v 0.02419010 0.06663869 0.07655919
v 0.02407756 0.06463839 0.07658843
v 0.02589878 0.06821502 0.07656894
v 0.02392828 0.06855202 0.07602308
v 0.02446339 0.06335559 0.07642273
v 0.02589878 0.06315991 0.07651046
v 0.02789915 0.06323601 0.07651046
v 0.02919215 0.06345343 0.07642273
v 0.02987654 0.06456229 0.07673464
v 0.03129126 0.06517108 0.07656894
v 0.03156226 0.06663869 0.07670540
v 0.03139231 0.06825850 0.07658843
v 0.03189987 0.07063929 0.07581839
v 0.03119940 0.07577049 0.07439527
v 0.02989951 0.07586834 0.07445375
v 0.02789915 0.07580310 0.07441476
v 0.02678988 0.07569440 0.07435627
v 0.02319106 0.06663869 0.07627651
v 0.02190266 0.06463839 0.07593536
v 0.02190266 0.06863899 0.07525304
v 0.02190266 0.06663869 0.07581839
v 0.02456215 0.07386803 0.07441476
v 0.02390072 0.07063929 0.07532127
v 0.02323011 0.07337883 0.07421981
v 0.02258935 0.07205255 0.07447325
v 0.02383871 0.06267071 0.07605232
v 0.02589878 0.06215976 0.07611081
v 0.02789915 0.06223586 0.07598409
v 0.03052649 0.06384480 0.07618879
v 0.01947742 0.03314455 0.05866294
v 0.03150944 0.06304033 0.07485339
v 0.03206752 0.06445358 0.07544799
v 0.03318827 0.06506237 0.07470718
v 0.03256359 0.06663869 0.07602308
v 0.03374635 0.06863899 0.07513607
v 0.03367516 0.07063929 0.07495087
v 0.03338578 0.07263959 0.07463895
v 0.03309182 0.07398762 0.07443425
v 0.03253144 0.07532478 0.07420032
v 0.03192283 0.07662932 0.07338154
v 0.03131652 0.07785776 0.07256275
v 0.02989951 0.07803170 0.07273820
v 0.02989951 0.07686848 0.07373244
v 0.02789915 0.07680326 0.07374219
v 0.02589878 0.07797734 0.07262124
v 0.02459430 0.07780341 0.07245553
v 0.02545783 0.07520519 0.07414183
v 0.02018019 0.06463839 0.07497036
v 0.02051320 0.06263809 0.07464870
v 0.02190266 0.06263809 0.07540900
v 0.02062344 0.06863899 0.07454148
v 0.02125501 0.07108501 0.07413208
v 0.02085539 0.06974786 0.07435627
v 0.02027894 0.06663869 0.07486314
v 0.02389613 0.07268307 0.07463895
v 0.02191414 0.07268307 0.07384941
v 0.02389613 0.07457466 0.07386890
v 0.02391680 0.07665106 0.07280644
v 0.02254801 0.07599879 0.07251401
v 0.02189117 0.07462902 0.07288441
v 0.01186181 0.03663420 0.06189908
v 0.01186181 0.03659072 0.06187959
v 0.01186181 0.03452519 0.06091459
v 0.01390121 0.03481872 0.06105106
v 0.01590157 0.03509050 0.06081712
v 0.02004698 0.03254664 0.05782466
v 0.02099090 0.03154649 0.05641129
v 0.01186181 0.03365550 0.06028101
v 0.01507479 0.01754439 0.04442197
v 0.01990230 0.03122035 0.05676219
v 0.03284378 0.06373608 0.07420032
v 0.03349372 0.06449707 0.07344976
v 0.03452261 0.06672566 0.07325482
v 0.03353047 0.06663869 0.07501910
v 0.03474768 0.06863899 0.07388840
v 0.03467419 0.07063929 0.07408335
v 0.03438482 0.07263959 0.07382017
v 0.03387956 0.07458554 0.07335229
v 0.03333526 0.07616186 0.07286492
v 0.03264627 0.07746640 0.07132483
v 0.03164494 0.07810780 0.07132483
v 0.02989951 0.07873833 0.07132483
v 0.02789915 0.07886879 0.07132483
v 0.02789915 0.07808606 0.07274796
v 0.02589878 0.07866223 0.07132483
v 0.02391680 0.07803170 0.07126635
v 0.02275011 0.07772731 0.07056453
v 0.02326455 0.07732507 0.07189993
v 0.01918116 0.06463839 0.07402487
v 0.01186181 0.05860488 0.06654860
v 0.01186181 0.05749602 0.06638289
v 0.01927991 0.06663869 0.07395663
v 0.01186181 0.07063929 0.06682153
v 0.01186181 0.06863899 0.06699698
v 0.01891934 0.07150899 0.07230932
v 0.02024449 0.07263959 0.07281618
v 0.01186181 0.07185686 0.06647062
v 0.02067626 0.07396587 0.07250427
v 0.02121597 0.07529216 0.07202664
v 0.02114936 0.02544775 0.05049461
v 0.02182687 0.02470851 0.04924693
v 0.02310609 0.02530642 0.04864260
v 0.01186181 0.03270971 0.05935501
v 0.01390121 0.01753352 0.04442197
v 0.01186181 0.00421631 0.02916726
v 0.01186181 0.00263999 0.02735424
v 0.01186181 -0.00203462 0.02196392
v 0.01190085 -0.00658965 0.01661260
v 0.01885963 0.00965191 0.03432365
v 0.01936718 0.01346770 0.03851504
v 0.01990230 0.01817492 0.04370066
v 0.01990230 0.01917507 0.04478262
v 0.02127109 0.01941424 0.04454868
v 0.02260543 0.01993606 0.04406131
v 0.02311757 0.01938163 0.04272592
v 0.03494979 0.06745403 0.07254326
v 0.03514500 0.06863899 0.07289417
v 0.02610318 0.02463241 0.03932407
v 0.03532414 0.07063929 0.07308911
v 0.03519093 0.07263959 0.07281618
v 0.03500031 0.07384629 0.07250427
v 0.03357641 0.07646625 0.07132483
v 0.03340875 0.07625970 0.06932661
v 0.03246484 0.07725985 0.06932661
v 0.03146351 0.07803170 0.06932661
v 0.02989951 0.07866223 0.06932661
v 0.02789915 0.07887965 0.06932661
v 0.02589878 0.07871658 0.06932661
v 0.02390072 0.07821651 0.06932661
v 0.01186181 0.07402023 0.06335144
v 0.01186181 0.07383542 0.06464785
v 0.01186181 0.07382455 0.06466735
v 0.01186181 0.07287876 0.06564209
v 0.01186181 0.06059431 0.06666556
v 0.01186181 0.06859551 0.06699698
v 0.01186181 0.07187861 0.06646087
v 0.01186181 0.07285701 0.06566158
v 0.01186181 0.01701170 0.04334975
v 0.01281491 0.01759875 0.04436348
v 0.01186181 0.00732548 0.03268608
v 0.01186181 -0.00661139 0.01659310
v 0.01186181 -0.00772025 0.01523821
v 0.01186181 -0.00915525 0.01348367
v 0.01392188 -0.00706798 0.01548190
v 0.01326964 -0.00643745 0.01642739
v 0.01990230 0.00917358 0.03292976
v 0.02069922 0.01373948 0.03820312
v 0.02091970 0.01563106 0.04033780
v 0.02106209 0.01752265 0.04248223
v 0.01460168 -0.00628526 0.01625194
v 0.01590157 -0.00688317 0.01498478
v 0.01721524 -0.00656791 0.01461437
v 0.02100468 0.00954320 0.03246189
v 0.01901121 -0.00649181 0.01254792
v 0.01919493 -0.00682882 0.01132950
v 0.02493880 0.01757701 0.03243265
v 0.02509037 0.01932727 0.03478178
v 0.03494979 0.06745403 0.07209487
v 0.02518913 0.01865326 0.03319295
v 0.02492042 0.01558758 0.02843621
v 0.02300733 0.00343359 0.01476059
v 0.01916967 -0.02505980 -0.02226009
v 0.01959455 -0.02333128 -0.02226009
v 0.03514500 0.06863899 0.07171473
v 0.03532414 0.07063929 0.07144180
v 0.03519093 0.07263959 0.07158801
v 0.03500031 0.07384629 0.07193892
v 0.03460070 0.07456379 0.07128584
v 0.03311019 0.07589008 0.06795223
v 0.03422635 0.07463989 0.06932661
v 0.03188149 0.07661845 0.06736738
v 0.03107308 0.07774905 0.06811793
v 0.02989951 0.07795560 0.06773778
v 0.02836995 0.07758598 0.06641213
v 0.02778202 0.07800996 0.06718218
v 0.02703562 0.07765121 0.06630491
v 0.02489975 0.07764034 0.06632440
v 0.02356771 0.07754250 0.06671430
v 0.01186181 0.07377019 0.06151893
v 0.01186181 0.07397675 0.06294206
v 0.01186181 0.07402023 0.06332220
v 0.01186181 -0.01024237 0.01214828
v 0.01390121 -0.00818771 0.01410751
v 0.01190085 -0.01461259 0.00667023
v 0.01186181 -0.01818921 0.00208895
v 0.01590157 -0.00788332 0.01365913
v 0.01442025 -0.01416687 0.00607564
v 0.01690750 -0.00836165 0.01234323
v 0.01854729 -0.00604609 0.01388332
v 0.01693046 -0.01238399 0.00636806
v 0.01648721 -0.01599323 0.00133840
v 0.01707745 -0.02878862 -0.02226009
v 0.01797772 -0.02735362 -0.02226009
v 0.01854499 -0.02636435 -0.02226009
v 0.01974383 -0.02135273 -0.02226009
v 0.03390023 0.06663869 0.06332220
v 0.03418041 0.06863899 0.06532042
v 0.01982421 -0.01775436 -0.02226009
v 0.01987014 -0.01535183 -0.02226009
v 0.03416664 0.07263959 0.06732839
v 0.03290119 0.06563854 0.05832178
v 0.03395076 0.07063929 0.06532042
v 0.03346846 0.07468337 0.06729915
v 0.03314464 0.07404197 0.06584678
v 0.03268761 0.07537913 0.06661683
v 0.03340416 0.07270482 0.06524244
v 0.03135557 0.07600966 0.06574931
v 0.02989951 0.07737943 0.06673380
v 0.03076304 0.07556394 0.06442366
v 0.02943099 0.07583572 0.06403376
v 0.02789915 0.07600966 0.06372185
v 0.02502147 0.07565091 0.06229872
v 0.02390072 0.07568352 0.06225974
v 0.02240791 0.07568352 0.06225974
v 0.02107357 0.07561829 0.06236695
v 0.01186181 0.07374845 0.06144095
v 0.01186181 -0.01463433 0.00665074
v 0.01186181 -0.01884148 0.00109471
v 0.01190085 -0.01884148 0.00108496
v 0.01333624 -0.01856970 0.00066582
v 0.01501508 -0.01643895 0.00244960
v 0.01396322 -0.01778698 0.00132865
v 0.01548588 -0.01683031 0.00133840
v 0.01588091 -0.03000619 -0.02226009
v 0.03294483 0.06463839 0.05815607
v 0.01960833 -0.01335153 -0.02226009
v 0.03302062 0.06999789 0.06203555
v 0.03102715 0.06193147 0.05210293
v 0.03114198 0.06417093 0.05392570
v 0.03216398 0.06644301 0.05752249
v 0.03276340 0.07132418 0.06257165
v 0.01913522 -0.01145994 -0.02226009
v 0.01903647 -0.01106858 -0.02226009
v 0.03308263 0.07208516 0.06390705
v 0.03278407 0.07342232 0.06452114
v 0.03206982 0.07480296 0.06513522
v 0.03001893 0.07634667 0.06518396
v 0.03144973 0.07422678 0.06371210
v 0.03081816 0.07358538 0.06237671
v 0.02669112 0.06350779 0.04850613
v 0.02535678 0.06388828 0.04799927
v 0.02789915 0.07530303 0.06271786
v 0.02390072 0.06416006 0.04763862
v 0.02635581 0.07552045 0.06248393
v 0.02252274 0.06356215 0.04640069
v 0.02119070 0.06368173 0.04627397
v 0.01990230 0.06368173 0.04626423
v 0.01186181 0.07190035 0.05800012
v 0.01186181 0.07210690 0.05831203
v 0.01186181 0.07283527 0.05941349
v 0.01883436 0.06365999 0.04629347
v 0.01186181 0.07346580 0.06070015
v 0.01186181 -0.03215869 -0.02226009
v 0.01190085 -0.03215869 -0.02226009
v 0.01467058 -0.01823269 0.00004199
v 0.01409643 -0.03136509 -0.02226009
v 0.03080667 0.06550809 0.05442281
v 0.03117643 0.06663869 0.05588493
v 0.01850824 -0.00977491 -0.02226009
v 0.03091002 0.06764971 0.05631381
v 0.02748346 0.06217063 0.04778483
v 0.02668423 0.06146401 0.04644943
v 0.02316121 0.05382156 0.03613667
v 0.02602051 0.06272506 0.04722922
v 0.02314284 0.05578925 0.03816412
v 0.02390072 0.06331211 0.04664438
v 0.02190266 0.05601754 0.03788145
v 0.01990230 0.05537614 0.03661429
v 0.01390121 0.04924479 0.02875787
v 0.01501048 0.05565879 0.03629262
v 0.01473718 0.05565879 0.03629262
v 0.01467518 0.06170317 0.04423677
v 0.01186181 0.05540875 0.03662404
v 0.01186181 -0.00306738 -0.02226009
v 0.02921971 0.06019208 0.04792129
v 0.02881780 0.06151836 0.04843790
v 0.01833370 -0.00943790 -0.02226009
v 0.02517765 0.05196259 0.03601970
v 0.02449325 0.05329974 0.03666302
v 0.02312906 0.05181039 0.03414819
v 0.02075664 0.04555945 0.02640875
v 0.02190266 0.05410421 0.03581500
v 0.02190266 0.05510436 0.03688721
v 0.01990230 0.05346281 0.03450885
v 0.01990230 0.05437599 0.03551283
v 0.01590157 0.04626608 0.02564845
v 0.01390121 0.04636392 0.02551198
v 0.01186181 0.04541813 0.02460547
v 0.01186181 0.04628783 0.02558996
v 0.01186181 0.04728797 0.02674991
v 0.01186181 0.04815767 0.02776364
v 0.01390121 0.05010361 0.02976185
v 0.01186181 0.04997316 0.02990806
v 0.01186181 0.05290838 0.03350487
v 0.01186181 0.05435425 0.03528864
v 0.01186181 0.01563106 -0.00566025
v 0.01200879 -0.00312174 -0.02226009
v 0.02699198 0.05178865 0.03817388
v 0.01737141 -0.00761154 -0.02226009
v 0.01712797 -0.00718756 -0.02226009
v 0.02554051 0.05057107 0.03533737
v 0.02282360 0.04353741 0.02641849
v 0.02139280 0.04214590 0.02387442
v 0.02446110 0.05119073 0.03468430
v 0.01667324 -0.00658965 -0.02226009
v 0.01590157 0.03540576 0.01454614
v 0.01942230 0.04584210 0.02611632
v 0.02148926 0.04422230 0.02580441
v 0.01707056 0.02379533 0.00419439
v 0.01590157 0.02517597 0.00476949
v 0.01458790 0.02552385 0.00444782
v 0.01790194 0.04602691 0.02591163
v 0.01590157 0.04532029 0.02465421
v 0.01390121 0.04447233 0.02345528
v 0.01390121 0.04547248 0.02450800
v 0.01186181 0.04441798 0.02352351
v 0.01186181 0.04915782 0.02893333
v 0.01186181 0.02593695 0.00407742
v 0.01190085 0.02591521 0.00405792
v 0.01325357 0.02576301 0.00421389
v 0.01254620 0.01550061 -0.00553353
v 0.01390121 -0.00406753 -0.02226009
v 0.02128716 0.04006950 0.02196392
v 0.01564665 -0.00544817 -0.02226009
v 0.01456724 0.03557970 0.01439018
v 0.01590157 0.04334173 0.02263650
v 0.01325816 0.02776331 0.00620236
v 0.01530215 -0.00507855 -0.02226009
v 0.01499670 -0.00426322 -0.02175323
v 0.01590157 0.02417582 0.00386298
v 0.01186181 0.03186175 0.01010132
v 0.01390121 0.04351567 0.02246104
v 0.01190085 0.03577538 0.01418549
v 0.01186181 0.03579712 0.01420498
v 0.01186181 0.02693710 0.00506191
v 0.01190085 0.02691536 0.00504241
v 0.01190085 0.02791551 0.00604640
v 0.01186181 0.02793725 0.00606589
f 1 2 3
f 1 3 4
f 1 4 5
f 1 5 6
f 1 6 7
f 1 7 2
f 2 8 9
f 2 9 3
f 2 7 10
f 2 10 11
f 2 11 8
f 3 9 12
f 3 12 13
f 3 13 4
f 4 13 14
f 4 14 15
f 4 15 16
f 4 16 5
f 5 16 17
f 5 17 18
f 5 18 19
f 5 19 6
f 6 19 20
f 6 20 21
f 6 21 22
f 6 22 7
f 7 22 23
f 7 23 24
f 7 24 10
f 8 25 9
f 8 11 25
f 9 26 12
f 9 25 26
f 10 24 11
f 11 27 28
f 11 28 25
f 11 24 29
f 11 29 30
f 11 30 31
f 11 31 32
f 11 32 27
f 12 33 34
f 12 34 13
f 12 26 33
f 13 34 14
f 14 34 35
f 14 35 15
f 15 36 16
f 15 35 37
f 15 37 36
f 16 36 17
f 17 36 38
f 17 38 39
f 17 39 40
f 17 40 41
f 17 41 18
f 18 41 42
f 18 42 43
f 18 43 19
f 19 43 20
f 20 43 44
f 20 44 45
f 20 45 46
f 20 46 21
f 21 46 47
f 21 47 48
f 21 48 49
f 21 49 50
f 21 50 22
f 22 50 51
f 22 51 23
f 23 51 24
f 24 51 52
f 24 52 53
f 24 53 54
f 24 54 31
f 24 31 29
f 25 28 26
f 26 55 56
f 26 56 57
f 26 57 33
f 26 28 55
f 27 58 28
f 27 32 59
f 27 59 60
f 27 60 58
f 28 61 55
f 28 58 61
f 29 31 62
f 29 62 30
f 30 62 31
f 31 63 32
f 31 54 64
f 31 64 65
f 31 65 66
f 31 66 67
f 31 67 63
f 32 63 59
f 33 57 68
f 33 68 69
f 33 69 70
f 33 70 34
f 34 70 71
f 34 71 35
f 35 71 72
f 35 72 37
f 36 37 73
f 36 73 74
f 36 74 38
f 37 72 71
f 37 71 75
f 37 75 76
f 37 76 77
f 37 77 73
f 38 78 39
f 38 74 78
f 39 78 40
f 40 78 79
f 40 79 80
f 40 80 81
f 40 81 41
f 41 81 42
f 42 81 82
f 42 82 83
f 42 83 43
f 43 83 84
f 43 84 44
f 44 84 45
f 45 84 85
f 45 85 46
f 46 85 86
f 46 86 47
f 47 86 48
f 48 86 87
f 48 87 88
f 48 88 89
f 48 89 49
f 49 89 90
f 49 90 91
f 49 91 50
f 50 91 51
f 51 91 52
f 52 91 90
f 52 90 92
f 52 92 53
f 53 92 93
f 53 93 94
f 53 94 95
f 53 95 66
f 53 66 65
f 53 65 54
f 54 65 64
f 55 96 97
f 55 97 98
f 55 98 68
f 55 68 56
f 55 61 99
f 55 99 100
f 55 100 101
f 55 101 96
f 56 68 57
f 58 60 102
f 58 102 61
f 59 63 103
f 59 103 102
f 59 102 60
f 61 102 104
f 61 104 100
f 61 100 99
f 63 67 105
f 63 105 103
f 66 95 106
f 66 106 105
f 66 105 67
f 68 98 97
f 68 97 141
f 68 141 142
f 68 142 101
f 68 101 100
f 68 100 104
f 68 104 143
f 68 143 144
f 68 144 140
f 68 140 139
f 68 139 138
f 68 138 137
f 68 137 188
f 68 188 187
f 68 187 186
f 68 186 223
f 68 223 259
f 68 259 257
f 68 257 256
f 68 256 255
f 68 255 280
f 68 280 302
f 68 302 301
f 68 301 300
f 68 300 324
f 68 324 298
f 68 298 297
f 68 297 296
f 68 296 295
f 68 295 323
f 68 323 341
f 68 341 338
f 68 338 345
f 68 345 342
f 68 342 325
f 68 325 303
f 68 303 281
f 68 281 260
f 68 260 225
f 68 225 192
f 68 192 224
f 68 224 189
f 68 189 150
f 68 150 149
f 68 149 148
f 68 148 114
f 68 114 113
f 68 113 112
f 68 112 147
f 68 147 145
f 68 145 110
f 68 110 75
f 68 75 70
f 68 70 69
f 70 75 71
f 73 77 74
f 74 77 107
f 74 107 108
f 74 108 109
f 74 109 78
f 75 110 76
f 76 111 112
f 76 112 113
f 76 113 114
f 76 114 115
f 76 115 116
f 76 116 117
f 76 117 118
f 76 118 119
f 76 119 77
f 76 110 111
f 77 119 120
f 77 120 107
f 78 109 121
f 78 121 122
f 78 122 79
f 79 122 80
f 80 123 124
f 80 124 82
f 80 82 81
f 80 122 125
f 80 125 123
f 82 124 126
f 82 126 83
f 83 126 127
f 83 127 84
f 84 127 128
f 84 128 85
f 85 128 86
f 86 129 87
f 86 128 129
f 87 129 130
f 87 130 131
f 87 131 132
f 87 132 88
f 88 132 133
f 88 133 89
f 89 134 90
f 89 133 134
f 90 134 135
f 90 135 92
f 92 135 136
f 92 136 94
f 92 94 93
f 94 136 137
f 94 137 138
f 94 138 95
f 95 138 139
f 95 139 140
f 95 140 106
f 96 141 97
f 96 101 142
f 96 142 141
f 102 143 104
f 102 103 143
f 103 105 143
f 105 106 143
f 106 140 144
f 106 144 143
f 107 120 121
f 107 121 108
f 108 121 109
f 110 145 146
f 110 146 111
f 111 146 147
f 111 147 112
f 114 148 115
f 115 148 149
f 115 149 150
f 115 150 151
f 115 151 152
f 115 152 116
f 116 153 154
f 116 154 155
f 116 155 156
f 116 156 117
f 116 152 157
f 116 157 158
f 116 158 159
f 116 159 153
f 117 156 118
f 118 156 120
f 118 120 119
f 120 156 121
f 121 156 155
f 121 155 154
f 121 154 160
f 121 160 122
f 122 160 161
f 122 161 162
f 122 162 163
f 122 163 164
f 122 164 125
f 123 165 171
f 123 171 124
f 123 125 166
f 123 166 167
f 123 167 168
f 123 168 169
f 123 169 170
f 123 170 165
f 124 171 172
f 124 172 126
f 125 164 166
f 126 172 173
f 126 173 127
f 127 173 174
f 127 174 128
f 128 174 129
f 129 174 175
f 129 175 130
f 130 176 131
f 130 175 177
f 130 177 176
f 131 178 179
f 131 179 132
f 131 176 178
f 132 179 133
f 133 179 180
f 133 180 181
f 133 181 182
f 133 182 134
f 134 182 183
f 134 183 184
f 134 184 135
f 135 184 185
f 135 185 186
f 135 186 136
f 136 186 187
f 136 187 188
f 136 188 137
f 145 147 146
f 150 189 151
f 151 157 152
f 151 189 190
f 151 190 157
f 153 160 154
f 153 159 160
f 157 190 158
f 158 190 191
f 158 191 192
f 158 192 193
f 158 193 159
f 159 193 194
f 159 194 195
f 159 195 196
f 159 196 160
f 160 196 161
f 161 196 197
f 161 197 198
f 161 198 199
f 161 199 200
f 161 200 201
f 161 201 162
f 162 201 169
f 162 169 168
f 162 168 163
f 163 166 164
f 163 168 166
f 165 170 171
f 166 168 167
f 169 201 200
f 169 200 199
f 169 199 231
f 169 231 263
f 169 263 261
f 169 261 260
f 169 260 281
f 169 281 304
f 169 304 329
f 169 329 335
f 169 335 331
f 169 331 312
f 169 312 307
f 169 307 306
f 169 306 284
f 169 284 266
f 169 266 240
f 169 240 239
f 169 239 233
f 169 233 206
f 169 206 205
f 169 205 202
f 169 202 170
f 170 202 172
f 170 172 171
f 172 203 204
f 172 204 173
f 172 202 205
f 172 205 206
f 172 206 203
f 173 207 177
f 173 177 174
f 173 204 208
f 173 208 209
f 173 209 207
f 174 177 175
f 176 177 210
f 176 210 211
f 176 211 212
f 176 212 178
f 177 207 213
f 177 213 210
f 178 212 214
f 178 214 179
f 179 215 180
f 179 214 216
f 179 216 215
f 180 215 181
f 181 183 182
f 181 215 217
f 181 217 218
f 181 218 219
f 181 219 183
f 183 219 220
f 183 220 221
f 183 221 184
f 184 221 222
f 184 222 223
f 184 223 185
f 185 223 186
f 189 224 191
f 189 191 190
f 191 224 192
f 192 225 226
f 192 226 227
f 192 227 194
f 192 194 193
f 194 228 195
f 194 227 229
f 194 229 228
f 195 228 197
f 195 197 196
f 197 228 230
f 197 230 198
f 198 230 231
f 198 231 199
f 203 232 204
f 203 206 232
f 204 232 208
f 206 233 208
f 206 208 232
f 207 234 213
f 207 209 208
f 207 208 234
f 208 235 236
f 208 236 237
f 208 237 238
f 208 238 234
f 208 233 239
f 208 239 240
f 208 240 235
f 210 213 211
f 211 213 241
f 211 241 242
f 211 242 212
f 212 243 216
f 212 216 214
f 212 242 243
f 213 234 241
f 215 244 217
f 215 216 244
f 216 217 244
f 216 243 245
f 216 245 246
f 216 246 247
f 216 247 248
f 216 248 217
f 217 249 218
f 217 248 250
f 217 250 249
f 218 249 251
f 218 251 219
f 219 251 252
f 219 252 253
f 219 253 220
f 220 253 254
f 220 254 221
f 221 255 256
f 221 256 257
f 221 257 222
f 221 254 258
f 221 258 255
f 222 257 259
f 222 259 223
f 225 260 261
f 225 261 226
f 226 261 227
f 227 262 229
f 227 261 263
f 227 263 262
f 228 229 262
f 228 262 230
f 230 262 231
f 231 262 263
f 234 238 241
f 235 240 236
f 236 264 265
f 236 265 237
f 236 240 266
f 236 266 264
f 237 265 238
f 238 267 242
f 238 242 241
f 238 265 267
f 242 245 243
f 242 267 245
f 245 267 246
f 246 267 247
f 247 268 269
f 247 269 270
f 247 270 271
f 247 271 248
f 247 267 268
f 248 271 270
f 248 270 272
f 248 272 273
f 248 273 250
f 249 250 252
f 249 252 251
f 250 273 252
f 252 273 274
f 252 274 275
f 252 275 253
f 253 275 276
f 253 276 277
f 253 277 254
f 254 277 278
f 254 278 258
f 255 258 279
f 255 279 278
f 255 278 280
f 258 278 279
f 264 266 282
f 264 282 283
f 264 283 267
f 264 267 265
f 266 284 282
f 267 283 268
f 268 283 285
f 268 285 286
f 268 286 269
f 269 286 270
f 270 286 287
f 270 287 288
f 270 288 272
f 272 288 289
f 272 289 290
f 272 290 273
f 273 290 274
f 274 290 291
f 274 291 292
f 274 292 275
f 275 292 293
f 275 293 276
f 276 293 294
f 276 294 295
f 276 295 296
f 276 296 297
f 276 297 298
f 276 298 299
f 276 299 277
f 277 299 278
f 278 299 300
f 278 300 301
f 278 301 302
f 278 302 280
f 281 303 304
f 282 305 283
f 282 284 306
f 282 306 307
f 282 307 305
f 283 305 308
f 283 308 285
f 285 309 310
f 285 310 311
f 285 311 286
f 285 308 307
f 285 307 312
f 285 312 309
f 286 311 287
f 287 311 288
f 288 313 314
f 288 314 289
f 288 311 315
f 288 315 310
f 288 310 316
f 288 316 317
f 288 317 318
f 288 318 313
f 289 314 290
f 290 314 291
f 291 314 319
f 291 319 293
f 291 293 292
f 293 319 320
f 293 320 321
f 293 321 322
f 293 322 294
f 294 322 295
f 295 322 323
f 298 324 299
f 299 324 300
f 303 325 326
f 303 326 327
f 303 327 318
f 303 318 328
f 303 328 304
f 304 328 329
f 305 307 308
f 309 330 310
f 309 312 330
f 310 315 311
f 310 330 316
f 312 331 330
f 313 332 333
f 313 333 314
f 313 318 327
f 313 327 334
f 313 334 332
f 314 320 319
f 314 333 320
f 316 335 336
f 316 336 329
f 316 329 337
f 316 337 317
f 316 330 335
f 317 337 318
f 318 337 328
f 320 333 332
f 320 332 338
f 320 338 339
f 320 339 321
f 321 339 338
f 321 338 340
f 321 340 341
f 321 341 322
f 322 341 323
f 325 342 343
f 325 343 326
f 326 343 327
f 327 343 334
f 328 337 329
f 329 336 335
f 330 331 335
f 332 334 344
f 332 344 338
f 334 343 344
f 338 341 340
f 338 344 345
f 342 345 344
f 342 344 343

