# https://github.com/mikedh/trimesh
v 0.01186181 0.06863550 0.06700671
v -0.00210143 0.06063045 0.06619400
v -0.00014403 0.06080904 0.06630760
v 0.00049194 0.05950638 0.06633382
v 0.00589775 0.06063045 0.06652607
v 0.00989735 0.06063045 0.06662220
v 0.01186181 0.06059894 0.06666589
v 0.01186181 0.07063151 0.06682319
v 0.00989735 0.07063151 0.06665715
v 0.00583416 0.06868803 0.06647364
v -0.05523384 0.05379150 0.06236636
v -0.01210041 0.05863444 0.06548614
v -0.00410123 0.05863444 0.06602796
v -0.00210143 0.05863444 0.06615904
v -0.00014403 0.05876051 0.06623769
v 0.00189816 0.05929628 0.06636003
v 0.00389796 0.05905466 0.06639499
v 0.01186181 0.05860293 0.06655229
v 0.01186181 0.07185012 0.06647364
v 0.00989735 0.07179759 0.06641246
v 0.00877379 0.07169254 0.06635129
v -0.05310684 0.05564043 0.06232266
v -0.05443533 0.05512567 0.06215662
v -0.05597581 0.05452687 0.06181581
v -0.05931116 0.05390706 0.06047002
v -0.05809574 0.05263591 0.06125652
v -0.05523384 0.05308764 0.06236636
v -0.01210041 0.05663843 0.06543371
v 0.00189816 0.05829827 0.06625517
v -0.01410021 0.05463192 0.06507541
v -0.05009655 0.03663633 0.06091570
v 0.00389796 0.05805665 0.06627264
v 0.01031427 0.05753138 0.06636003
v 0.01186181 0.05749987 0.06638625
v 0.01186181 0.07187113 0.06646490
v 0.00989735 0.07279560 0.06560849
v 0.00851939 0.07372006 0.06447243
v -0.04556697 0.06380306 0.06045254
v -0.04617469 0.06277353 0.06088949
v -0.04613229 0.06053590 0.06199059
v -0.04548924 0.05981104 0.06237510
v -0.04682480 0.05943285 0.06228771
v -0.04809675 0.06063045 0.06137886
v -0.04809675 0.06213271 0.06060984
v -0.05590515 0.05657540 0.06073218
v -0.05738909 0.05587155 0.06049623
v -0.05807453 0.05460040 0.06080209
v -0.05879531 0.05531476 0.05932522
v -0.05963621 0.05431676 0.05932522
v -0.06024393 0.05263591 0.05932522
v -0.05944542 0.05263591 0.06056614
v -0.05938182 0.05063991 0.06053993
v -0.05809574 0.05063991 0.06110796
v -0.05597581 0.05250985 0.06206924
v -0.05582035 0.03863234 0.06062732
v -0.05494411 0.05175346 0.06231392
v -0.05420214 0.05250985 0.06241005
v -0.05409614 0.03863234 0.06102057
v -0.01367623 0.03749776 0.06234888
v -0.05209635 0.03663633 0.06081958
v -0.05009655 0.03533367 0.06051371
v -0.04809675 0.03523912 0.06055740
v -0.01210041 0.03637370 0.06218284
v -0.01424861 0.03675189 0.06218284
v -0.01210041 0.03738221 0.06236636
v -0.01010062 0.03727715 0.06238383
v -0.01010062 0.03627914 0.06220032
v -0.00810082 0.03622662 0.06220906
v 0.00789755 0.03663633 0.06209545
v 0.00989735 0.03663633 0.06202554
v 0.01186181 0.03663633 0.06189446
v 0.01186181 0.07285863 0.06566092
v 0.01186181 0.07287964 0.06564345
v 0.00989735 0.07381462 0.06460352
v 0.00989735 0.07406674 0.06332764
v 0.00786928 0.07381462 0.06331890
v -0.04617469 0.06409720 0.05942135
v -0.04689546 0.06354042 0.06014668
v -0.04922031 0.06173351 0.06039137
v -0.05779188 0.05619721 0.05932522
v -0.05510664 0.05764694 0.06033020
v -0.05644926 0.05719522 0.05932522
v -0.05777774 0.05619721 0.05732401
v -0.05877411 0.05524123 0.05732401
v -0.05955142 0.05423272 0.05732401
v -0.06020859 0.05263591 0.05732401
v -0.06032872 0.05063991 0.05732401
v -0.06015913 0.05063991 0.05932522
v -0.05921223 0.04863339 0.06042632
v -0.05819466 0.04676345 0.06067975
v -0.05763642 0.04463087 0.06064480
v -0.05912036 0.04751983 0.06034767
v -0.05682378 0.03863234 0.06011172
v -0.05545289 0.03722462 0.06050497
v -0.05400428 0.03659430 0.06060984
v -0.05326937 0.03557529 0.06037389
v -0.05209635 0.03547024 0.06043506
v -0.05009655 0.03433566 0.05988451
v -0.04809675 0.03424112 0.05997190
v -0.01410021 0.03295947 0.06070597
v -0.01410021 0.03464032 0.06153616
v -0.01210041 0.03464032 0.06158860
v -0.01010062 0.03464032 0.06160607
v -0.00810082 0.03464032 0.06159733
v 0.00789755 0.03464032 0.06145751
v 0.00989735 0.03464032 0.06130021
v 0.01186181 0.03659430 0.06187698
v 0.01186181 0.07382512 0.06466469
v 0.01186181 0.07383563 0.06464721
v 0.01186181 0.07402472 0.06335385
v 0.01186181 0.07402472 0.06332764
v 0.01002454 0.07383563 0.06116039
v 0.00789755 0.07379360 0.06164103
v 0.00661853 0.07369905 0.06201680
v 0.00661853 0.07369905 0.06264601
v -0.04609696 0.06408670 0.05776970
v -0.04736184 0.06380306 0.05810178
v -0.04736184 0.06380306 0.05881837
v -0.00542265 0.07170305 0.06051371
v -0.01210041 0.07049493 0.05932522
v -0.04805435 0.06306768 0.05942135
v -0.05317751 0.05969548 0.05850377
v -0.05647753 0.05719522 0.05732401
v -0.05736789 0.05587155 0.05600444
v -0.05920516 0.05380200 0.05620544
v -0.05955142 0.05063991 0.05572480
v -0.05941715 0.05263591 0.05590831
v -0.04698732 0.02263275 0.02654563
v -0.06010966 0.04863339 0.05732401
v -0.04706506 0.02063674 0.02643202
v -0.04511472 0.01141308 0.02228978
v -0.04917085 0.01943914 0.03216474
v -0.05987647 0.04863339 0.05932522
v -0.05951608 0.04676345 0.05941261
v -0.05892957 0.04618565 0.06014668
v -0.05770708 0.03863234 0.05911549
v -0.05740322 0.03708806 0.05873971
v -0.05623020 0.03648925 0.05944757
v -0.05460492 0.03590095 0.06014668
v -0.05345310 0.03346373 0.05848629
v -0.05209635 0.03320109 0.05869602
v -0.05009655 0.03293846 0.05888828
v -0.04809675 0.03280189 0.05896693
v -0.01410021 0.03196147 0.06009425
v -0.01210041 0.03292795 0.06073218
v 0.00789755 0.03308553 0.06067101
v 0.00989735 0.03325362 0.06056614
v 0.01186181 0.03452476 0.06091570
v 0.01186181 0.07397219 0.06294312
v 0.01170635 0.07378310 0.06144877
v 0.01090785 0.07363602 0.06032145
v 0.01077358 0.07363602 0.06032145
v 0.00944510 0.07362552 0.06038263
v 0.00789755 0.07356249 0.06063606
v -0.00542265 0.07170305 0.06012046
v -0.01010062 0.07086262 0.05932522
v -0.01210041 0.06999068 0.05786583
v -0.03409818 0.05973750 0.04818313
v -0.03509454 0.05963245 0.04832296
v -0.03009858 0.05598710 0.04183869
v -0.04609696 0.05808817 0.04974739
v -0.04845007 0.05944335 0.05261375
v -0.05317751 0.05969548 0.05820665
v -0.04957363 0.05986356 0.05394206
v -0.05018135 0.05912819 0.05329538
v -0.05090212 0.05953790 0.05454505
v -0.05337537 0.05780452 0.05405567
v -0.05471092 0.05733179 0.05491208
v -0.05514904 0.05766796 0.05624913
v -0.05547409 0.05599761 0.05392458
v -0.05680258 0.05526224 0.05467613
v -0.05799680 0.05453737 0.05543641
v -0.05729016 0.05392807 0.05404693
v -0.04530552 0.02800097 0.02609994
v -0.04688133 0.02910402 0.02856431
v -0.04714279 0.02778035 0.02825845
v -0.04724171 0.02663527 0.02808367
v -0.04628068 0.02263275 0.02532218
v -0.03927786 0.01017345 0.01009903
v -0.03936973 0.00865019 0.00995047
v -0.04651387 0.02063674 0.02532218
v -0.05979167 0.04663738 0.05732401
v -0.04009757 0.00865019 0.01133121
v -0.04083954 0.00464766 0.01292169
v -0.04424555 0.00865019 0.02133724
v -0.04724878 0.01526853 0.02783898
v -0.04128472 0.00464766 0.01391792
v -0.03939799 0.00064514 0.00983686
v -0.03927786 -0.00063651 0.01000290
v -0.04922738 0.01936560 0.03332701
v -0.05712057 0.03559630 0.05627535
v -0.05810987 0.03863234 0.05732401
v -0.05936769 0.04516664 0.05880963
v -0.05743856 0.03649976 0.05724537
v -0.05700044 0.03575388 0.05785709
v -0.05566489 0.03513407 0.05881837
v -0.05478865 0.03379990 0.05809304
v -0.05009655 0.02689791 0.05312060
v -0.05009655 0.02784339 0.05411684
v -0.04908605 0.02763328 0.05431784
v -0.04775050 0.02744418 0.05450135
v -0.05009655 0.03194046 0.05802313
v -0.04609696 0.02731812 0.05461496
v -0.04609696 0.02850522 0.05561993
v -0.04809675 0.03180388 0.05816295
v -0.04609696 0.03174085 0.05823286
v -0.02809879 0.02785389 0.05616174
v -0.02009960 0.02758075 0.05637148
v -0.01410021 0.03067982 0.05909801
v -0.01210041 0.03192995 0.06012046
v 0.00789755 0.03208753 0.05996316
v 0.00989735 0.03225562 0.05979712
v 0.01117637 0.03348474 0.06041758
v 0.01186181 0.03365282 0.06027776
v 0.01186181 0.07377259 0.06151868
v 0.01186181 0.07375158 0.06144877
v 0.01186181 0.07346794 0.06070597
v 0.01186181 0.07283762 0.05941261
v 0.01186181 0.07190265 0.05800565
v 0.00989735 0.07198669 0.05790952
v 0.01002454 0.07311076 0.05951748
v 0.00789755 0.07289015 0.05932522
v 0.00189816 0.07175557 0.05814547
v 0.00042128 0.07169254 0.05824160
v -0.00091427 0.07160850 0.05840764
v -0.01010062 0.07013775 0.05769105
v -0.01610001 0.05399110 0.03583507
v -0.02809879 0.05621822 0.04155905
v -0.03009858 0.05523072 0.04084246
v -0.04756677 0.05784654 0.05008821
v -0.03209838 0.05399110 0.03988118
v -0.03209838 0.05317169 0.03887621
v -0.02524395 0.04969443 0.03225212
v -0.03209838 0.05132275 0.03667401
v -0.04609696 0.05717421 0.04875116
v -0.05009655 0.05807766 0.05180977
v -0.05129077 0.05775200 0.05220302
v -0.05201155 0.05815120 0.05336529
v -0.05262633 0.05732128 0.05271862
v -0.05410321 0.05665944 0.05332160
v -0.05349550 0.05598710 0.05198455
v -0.05483105 0.05535679 0.05259627
v -0.05611714 0.05464242 0.05332160
v -0.05543876 0.05402261 0.05208941
v -0.03545493 0.01864074 0.00996794
v -0.04556697 0.02663527 0.02575039
v -0.03585065 0.01661321 0.00925135
v -0.03904467 0.01150763 0.01041363
v -0.03110908 0.00567718 -0.00168101
v -0.03256476 0.00264115 -0.00096442
v -0.03277676 0.00064514 -0.00127028
v -0.03350460 0.00064514 -0.00027404
v -0.03357526 -0.00135087 -0.00037017
v -0.04009757 0.00464766 0.01133121
v -0.04551044 0.01091933 0.03132580
v -0.04828755 0.01664472 0.03732068
v -0.05326937 0.02702397 0.04932793
v -0.05321991 0.02702397 0.04810448
v -0.03932733 -0.00067853 0.01133121
v -0.03353993 -0.00335738 -0.00033521
v -0.03348340 -0.00535339 -0.00028278
v -0.03334914 -0.00734940 -0.00015170
v -0.03319367 -0.00864155 0.00008425
v -0.03168146 -0.01103676 -0.00066729
v -0.05712057 0.03559630 0.05652877
v -0.05532570 0.03335867 0.05675599
v -0.05280299 0.02602597 0.04932793
v -0.05167943 0.02467078 0.04915315
v -0.05138970 0.02536413 0.05062128
v -0.05152397 0.02727610 0.05271862
v -0.05009655 0.02500695 0.05100580
v -0.04877513 0.02372530 0.05021930
v -0.04894472 0.02567929 0.05227293
v -0.04760917 0.02546918 0.05250014
v -0.04609696 0.02632011 0.05361872
v -0.02910222 0.02563727 0.05432657
v -0.02809879 0.02663527 0.05518299
v -0.01610001 0.02749671 0.05644139
v -0.01210041 0.03065881 0.05912423
v -0.01410021 0.02968181 0.05828529
v -0.01210041 0.02966080 0.05830277
v -0.01210041 0.02863128 0.05743762
v -0.01210041 0.02749671 0.05645886
v 0.00789755 0.03098447 0.05895819
v 0.00989735 0.03117357 0.05880089
v 0.01118343 0.03143620 0.05854746
v 0.01186181 0.03267583 0.05932522
v 0.00946630 0.05998963 0.04195230
v 0.00789755 0.06013670 0.04176878
v 0.01186181 0.05540931 0.03662157
v 0.00789755 0.07196568 0.05792700
v 0.00189816 0.06110319 0.04307088
v 0.00589775 0.07190265 0.05796196
v 0.00389796 0.07182911 0.05804060
v 0.00189816 0.06845691 0.05332160
v -0.00000977 0.06818377 0.05316430
v -0.00061748 0.06759547 0.05238654
v -0.00210143 0.06751143 0.05250014
v -0.00210143 0.06819427 0.05350512
v -0.01410021 0.05513618 0.03708473
v -0.01410021 0.05412767 0.03566029
v -0.01610001 0.05325573 0.03483010
v -0.02209940 0.05108113 0.03308232
v -0.02209940 0.05180599 0.03407855
v -0.02404973 0.05096557 0.03347557
v -0.02409919 0.04986251 0.03205987
v -0.04889526 0.05752088 0.05042903
v -0.03252943 0.04543978 0.03052183
v -0.03276262 0.04151079 0.02645824
v -0.03409818 0.04019763 0.02576786
v -0.03209838 0.05032475 0.03559038
v -0.02409919 0.04209909 0.02382783
v -0.02560434 0.04184696 0.02410747
v -0.03142707 0.04175241 0.02619607
v -0.03409818 0.04993605 0.03600111
v -0.05191262 0.05651237 0.05142526
v -0.03767378 0.03809657 0.02589021
v -0.03900934 0.03751877 0.02643202
v -0.03723567 0.02581586 0.01619878
v -0.03130694 0.01590935 0.00413910
v -0.03268489 0.01464872 0.00476830
v -0.03300995 0.01345111 0.00441874
v -0.03522880 0.01591986 0.00818521
v -0.03522880 0.01192784 0.00617526
v -0.03713674 0.01172824 0.00829007
v -0.03080523 0.00701136 -0.00137514
v -0.02713775 0.00570870 -0.00570964
v -0.02734975 0.00464766 -0.00592811
v -0.02511676 -0.00430286 -0.01169578
v -0.03126454 0.00464766 -0.00184704
v -0.03156133 0.00264115 -0.00213543
v -0.03284742 -0.00135087 -0.00136640
v -0.02516622 -0.00535339 -0.01174821
v -0.02524395 -0.00935591 -0.01183560
v -0.03283329 -0.00335738 -0.00134019
v -0.03281209 -0.00535339 -0.00128775
v -0.04473314 0.00992133 0.03132580
v -0.04541151 0.01128702 0.03332701
v -0.04753144 0.01502691 0.03732068
v -0.03527120 -0.00656150 0.01333242
v -0.03527827 -0.00662453 0.01133121
v -0.03279089 -0.00734940 -0.00115667
v -0.03263543 -0.00932440 -0.00061486
v -0.03138467 -0.01079514 -0.00203056
v -0.02965340 -0.01299075 -0.00266850
v -0.02709535 -0.01636295 0.00032894
v -0.02709535 -0.01636295 0.00037264
v -0.04736891 0.01534207 0.03873638
v -0.05112824 0.02360975 0.04836665
v -0.05009655 0.02399844 0.04978235
v -0.04517832 0.01360869 0.03837809
v -0.03529240 -0.00044741 0.02444829
v -0.04698732 0.02165576 0.04830547
v -0.04743957 0.02354671 0.05042903
v -0.04609696 0.02535363 0.05262249
v -0.02359748 0.00959567 0.03837809
v -0.02809879 0.02561626 0.05434405
v -0.02209940 0.00955364 0.03841305
v -0.01410021 0.02747570 0.05646760
v -0.01410021 0.02863128 0.05742888
v -0.02609899 0.02558474 0.05437901
v -0.00210143 0.01556268 0.04440793
v -0.00057509 0.01559420 0.04438171
v 0.00789755 0.02998647 0.05794447
v 0.00076047 0.01565723 0.04431180
v 0.00589775 0.01700191 0.04497596
v 0.00789755 0.01721201 0.04475748
v 0.01186181 0.01701241 0.04335052
v 0.01186181 0.05435878 0.03528452
v 0.00789755 0.05390706 0.03398242
v 0.00589775 0.05403312 0.03383387
v 0.00389796 0.05406463 0.03378143
v 0.00389796 0.05506264 0.03509227
v 0.00189816 0.06770053 0.05223798
v 0.00189816 0.06698616 0.05123300
v -0.00010164 0.06102965 0.04316700
v 0.00189816 0.05402261 0.03381639
v 0.00071100 0.06764800 0.05229915
v -0.00210143 0.06667100 0.05132040
v -0.00000977 0.06702819 0.05151265
v -0.00211557 0.06105066 0.04349034
v -0.01410021 0.05337128 0.03466406
v -0.01610001 0.05224722 0.03357170
v -0.02209940 0.05008312 0.03183266
v -0.02092637 0.04159484 0.02236843
v -0.02209940 0.04144776 0.02252573
v -0.03543373 0.03985095 0.02610868
v -0.03604851 0.03861133 0.02533092
v -0.02561847 0.03987196 0.02209753
v -0.03207011 0.04062835 0.02533092
v -0.03271316 0.03947276 0.02446577
v -0.03409818 0.03912608 0.02477163
v -0.02409919 0.04115361 0.02283160
v -0.03665622 0.03725614 0.02455316
v -0.02936368 0.01786334 0.00413036
v -0.02992192 0.01647664 0.00346620
v -0.03601318 0.02655123 0.01577057
v -0.02914462 0.01569925 0.00229519
v -0.02504609 0.00556163 -0.00763219
v -0.03109495 0.00963769 0.00033768
v -0.03168853 0.01464872 0.00378954
v -0.02606366 0.00479474 -0.00705542
v -0.02409213 -0.00352547 -0.01220263
v -0.02294737 -0.00472307 -0.01357464
v -0.02319469 -0.00605725 -0.01374942
v -0.02537115 0.00422745 -0.00791184
v -0.02521569 -0.00734940 -0.01180065
v -0.02325122 -0.00734940 -0.01380185
v -0.02424052 -0.00734940 -0.01280562
v -0.02424759 -0.00935591 -0.01283183
v -0.02519449 -0.01135192 -0.01178317
v -0.03880441 -0.00009023 0.02133724
v -0.02701762 -0.01627891 0.00170095
v -0.03515814 -0.00641443 0.01445974
v -0.03164613 -0.00935591 -0.00229273
v -0.02512382 -0.01241296 -0.01169578
v -0.02932128 -0.01267559 -0.00397933
v -0.02872770 -0.01398875 -0.00266850
v -0.01093446 -0.02660563 -0.02226110
v -0.00947171 -0.02830749 -0.02226110
v -0.00925971 -0.02853861 -0.02226110
v -0.02490476 -0.01814886 -0.00066729
v -0.00719632 -0.03046108 -0.02226110
v -0.02624738 -0.01701428 0.00115040
v -0.03730633 -0.00257999 0.01885540
v -0.03700247 -0.00229635 0.02018371
v -0.05009655 0.02330509 0.04877738
v -0.03623930 -0.00199169 0.02145085
v -0.03567399 -0.00268504 0.02086535
v -0.03473415 -0.00226483 0.02220240
v -0.03407698 -0.00169754 0.02318989
v -0.03409818 -0.00060499 0.02464055
v -0.03409818 0.00192679 0.02796133
v -0.03573759 0.00139102 0.02666797
v -0.03409818 0.00292479 0.02914108
v -0.03209838 0.00634952 0.03351927
v -0.03209838 0.00734753 0.03465532
v -0.04609696 0.02345217 0.05053389
v -0.04609696 0.02435562 0.05153013
v -0.02323709 0.00762067 0.03635067
v -0.02209940 0.00757864 0.03638562
v -0.02209940 0.00855564 0.03739059
v -0.01610001 0.01546813 0.04450406
v -0.01809980 0.01547864 0.04448658
v -0.02009960 0.02552171 0.05444892
v -0.01809980 0.02551120 0.05447514
v -0.01610001 0.01447013 0.04347287
v -0.02009960 0.00757864 0.03639436
v -0.01999360 0.00639154 0.03514470
v -0.02059425 0.00562466 0.03434946
v -0.01610001 0.00570870 0.03425333
v -0.01410021 0.00575072 0.03420964
v -0.00010164 0.00796734 0.03598363
v 0.00189816 0.00800936 0.03591372
v 0.00389796 0.01001587 0.03793241
v 0.00589775 0.01209593 0.03984623
v 0.00589775 0.01600390 0.04393603
v 0.00589775 0.01115045 0.03884999
v 0.00589775 0.01015244 0.03779259
v 0.00753010 0.00941707 0.03657788
v 0.00856886 0.00574022 0.03221717
v 0.01186181 0.00730551 0.03266285
v 0.01186181 0.05427474 0.03517965
v 0.00789755 0.05309814 0.03298619
v 0.00589775 0.05321371 0.03282890
v 0.00389796 0.05325573 0.03278520
v 0.00189816 0.05323472 0.03281141
v -0.00410123 0.05378099 0.03413099
v -0.01410021 0.05236277 0.03343187
v -0.01610001 0.05142780 0.03257546
v -0.01410021 0.05154336 0.03243564
v -0.01610001 0.04303406 0.02301511
v -0.01809980 0.04188898 0.02207131
v -0.01959788 0.04174191 0.02221987
v -0.02092637 0.03959883 0.02036723
v -0.02209940 0.03943074 0.02051579
v -0.02409919 0.04014510 0.02181788
v -0.03532067 0.03778141 0.02420360
v -0.02409919 0.03911558 0.02081291
v -0.02409919 0.03203500 0.01394414
v -0.02409919 0.02997596 0.01199537
v -0.02428999 0.02864179 0.01086805
v -0.02174608 0.01797890 0.00004930
v -0.02308163 0.01763222 0.00034642
v -0.02698936 0.01756919 0.00239132
v -0.02809879 0.01712797 0.00273214
v -0.02809879 0.01612996 0.00193690
v -0.02677737 0.01539459 0.00051246
v -0.02304630 0.00759965 -0.00763219
v -0.02371761 0.00626548 -0.00809535
v -0.02272124 0.00519394 -0.00942366
v -0.02324416 0.00385977 -0.00977322
v -0.02282724 0.00064514 -0.01146857
v -0.02255165 -0.00335738 -0.01331247
v -0.01277879 -0.00855751 -0.02226110
v -0.01318158 -0.00931389 -0.02226110
v -0.01337944 -0.00972360 -0.02226110
v -0.01398008 -0.01112080 -0.02226110
v -0.01406488 -0.01135192 -0.02226110
v -0.01434047 -0.01248649 -0.02226110
v -0.01446766 -0.01331641 -0.02226110
v -0.02325829 -0.00935591 -0.01381059
v -0.01451713 -0.01458756 -0.02226110
v -0.02419812 -0.01135192 -0.01277940
v -0.01443940 -0.01535444 -0.02226110
v -0.01428394 -0.01670963 -0.02226110
v -0.02672790 -0.01612133 0.00333512
v -0.03464936 -0.00610977 0.01579678
v -0.02573154 -0.01679367 0.00333512
v -0.02534995 -0.01649952 0.00458478
v -0.02487650 -0.01389421 -0.01066459
v -0.01359850 -0.02119540 -0.02226110
v -0.01357023 -0.02135298 -0.02226110
v -0.01341477 -0.02193077 -0.02226110
v -0.01311091 -0.02294978 -0.02226110
v -0.01191669 -0.02519792 -0.02226110
v -0.01127364 -0.02614340 -0.02226110
v -0.02391547 -0.01890524 -0.00066729
v -0.00650381 -0.03095483 -0.02226110
v -0.02470691 -0.01816987 0.00133391
v -0.03516521 -0.00439741 0.01840971
v -0.03331380 -0.00646695 0.01650464
v -0.02290497 -0.01631043 0.00626265
v -0.03340567 -0.00243291 0.02242961
v -0.02409919 -0.00862054 0.01668815
v -0.02409919 -0.00784315 0.01768439
v -0.02209940 -0.00802174 0.01790286
v -0.02209940 -0.00702373 0.01917874
v -0.02310283 -0.00435539 0.02233348
v -0.02209940 -0.00360951 0.02341710
v -0.02209940 -0.00260100 0.02463181
v -0.02209940 -0.00177108 0.02562804
v -0.02209940 0.00106535 0.02901873
v -0.03274849 0.00368118 0.03027714
v -0.03209838 0.00548809 0.03251429
v -0.02209940 0.00191628 0.03001497
v -0.02267178 0.00568769 0.03427081
v -0.02134329 0.00562466 0.03434946
v -0.02009960 0.00855564 0.03739933
v -0.02009960 0.00186376 0.03008488
v -0.01809980 0.00189527 0.03004992
v -0.00010164 0.00605537 0.03386008
v -0.00010164 0.00705338 0.03497866
v -0.01610001 0.00193729 0.03000623
v 0.00189816 0.00712692 0.03491749
v 0.00389796 0.00809340 0.03580885
v 0.00389796 0.00910192 0.03692744
v 0.00589775 0.00921747 0.03678761
v 0.00741703 0.00748410 0.03450676
v 0.01186181 0.00421695 0.02915855
v 0.00723331 0.00556163 0.03242690
v 0.00921897 -0.00247494 0.02246456
v 0.01186181 -0.00203371 0.02195771
v 0.01186181 0.00260963 0.02731465
v 0.01186181 0.04997807 0.02991010
v 0.00789755 0.05127022 0.03076651
v 0.00789755 0.05027222 0.02960424
v 0.00589775 0.05134376 0.03065291
v 0.00389796 0.05224722 0.03162293
v 0.00189816 0.05223671 0.03164040
v -0.00410123 0.05197408 0.03192879
v -0.01410021 0.04401105 0.02389774
v -0.01410021 0.04312861 0.02290151
v -0.01610001 0.04203605 0.02191401
v -0.01610001 0.03105801 0.01090300
v -0.01809980 0.03189844 0.01207402
v -0.01947776 0.03174085 0.01222258
v -0.02081331 0.03155176 0.01241483
v -0.02209940 0.03136266 0.01259835
v -0.02209940 0.03036466 0.01161959
v -0.02565381 0.01799991 0.00203303
v -0.02209940 0.02932463 0.01061462
v -0.02009960 0.01934459 0.00061732
v -0.02009960 0.01833608 -0.00026530
v -0.01809980 0.01016295 -0.00810409
v -0.01945656 0.00984779 -0.00783319
v -0.02079211 0.00945910 -0.00750985
v -0.02544181 0.01587784 0.00013669
v -0.02409919 0.01730656 0.00061732
v -0.02519449 0.01372425 -0.00172470
v -0.02171074 0.00812492 -0.00803418
v -0.02139276 0.00589779 -0.00985187
v -0.02207820 0.00457413 -0.01018395
v -0.02090517 0.00341854 -0.01156470
v -0.02208526 0.00271469 -0.01111901
v -0.02140689 0.00208437 -0.01187056
v -0.02182381 0.00064514 -0.01217642
v -0.01211455 -0.00745445 -0.02225236
v -0.01211455 -0.00748597 -0.02226110
v -0.02371761 -0.01869513 0.00133391
v -0.02328656 -0.01843250 0.00247871
v -0.02409919 -0.01675165 0.00496929
v -0.02128676 -0.02046002 -0.00121784
v -0.02201460 -0.01996627 -0.00059738
v -0.00607276 -0.03117544 -0.02226110
v -0.02409919 -0.01614234 0.00596553
v -0.02209940 -0.01804380 0.00378954
v -0.02218419 -0.01697226 0.00548489
v -0.02156942 -0.01646801 0.00648986
v -0.02693283 -0.00831589 0.01627742
v -0.02559727 -0.00847347 0.01648716
v -0.02209940 -0.00877812 0.01689789
v -0.02336429 -0.01040644 0.01441604
v -0.02009960 -0.00807427 0.01797277
v -0.01809980 -0.01593224 0.00778322
v -0.01610001 -0.01676216 0.00685690
v -0.02009960 -0.00884115 0.01696780
v -0.02009960 -0.00540592 0.02133724
v -0.02209940 -0.00530086 0.02133724
v -0.02209940 -0.00442892 0.02241213
v -0.02009960 -0.00448145 0.02247330
v -0.02009960 -0.00081510 0.02688644
v -0.02009960 0.00001482 0.02788268
v -0.02009960 0.00101283 0.02907991
v -0.01809980 0.00102333 0.02905369
v -0.01610001 0.00105485 0.02901000
v -0.00010164 0.00141203 0.02859927
v 0.00189816 0.00150658 0.02849440
v 0.00491552 0.00164314 0.02832836
v 0.00589775 0.00544607 0.03255799
v 0.00589775 0.00632851 0.03355422
v 0.00589775 0.00821947 0.03567777
v 0.00625107 0.00174820 0.02819728
v 0.00884445 -0.00434488 0.02032353
v 0.01186181 -0.00659302 0.01661824
v 0.01186181 0.04915865 0.02893135
v 0.01186181 0.04728871 0.02674662
v 0.01186181 0.04630121 0.02560183
v 0.00721211 0.04568140 0.02427351
v 0.00589775 0.04569190 0.02425604
v 0.00389796 0.05136477 0.03062669
v 0.00189816 0.05133325 0.03064417
v 0.00048488 0.04366438 0.02229852
v -0.00210143 0.04356983 0.02240339
v -0.00292114 0.04162635 0.02034975
v -0.01410021 0.04213060 0.02181788
v -0.00010164 0.03191945 0.01005533
v -0.00210143 0.03181439 0.01015146
v -0.01610001 0.03006000 0.00992425
v -0.01809980 0.03087942 0.01107778
v -0.01942122 0.02972383 0.01024759
v -0.02012080 0.03063780 0.01132247
v -0.02075678 0.02953474 0.01043110
v -0.01905377 0.02162424 0.00234763
v -0.01884178 0.01957571 0.00039885
v -0.01809980 0.01116095 -0.00723020
v -0.01610001 0.00936455 -0.00944114
v -0.01809980 0.00895484 -0.00910907
v -0.01610001 0.01050962 -0.00844491
v -0.01918803 0.00770471 -0.00971205
v -0.02052359 0.00723197 -0.00937123
v -0.01870045 0.00540405 -0.01152974
v -0.02018440 0.00470019 -0.01123262
v -0.01995121 0.00660165 -0.01011404
v -0.01117471 -0.00627786 -0.02226110
v -0.01210041 -0.00746496 -0.02226110
v -0.02209940 -0.01935697 0.00133391
v -0.02089104 -0.02030244 0.00011921
v -0.02209940 -0.01861109 0.00278457
v -0.00421429 -0.03206839 -0.02226110
v -0.00410123 -0.03212092 -0.02226110
v -0.02017733 -0.01992425 0.00125526
v -0.02009960 -0.01885271 0.00312539
v -0.02009960 -0.01822239 0.00413036
v -0.02009960 -0.01745551 0.00533633
v -0.02009960 -0.01658357 0.00664716
v -0.01809980 -0.01668862 0.00677825
v -0.01610001 -0.00802174 0.01792034
v -0.01610001 -0.01598476 0.00786187
v -0.01410021 -0.01676216 0.00683942
v -0.01610001 -0.01776016 0.00551111
v -0.01410021 -0.01947252 0.00333512
v -0.01410021 -0.01853755 0.00457604
v -0.01610001 -0.00621483 0.02015749
v -0.01610001 -0.00525884 0.02133724
v -0.01492698 -0.00437640 0.02236843
v -0.01610001 -0.00077308 0.02683401
v -0.01809980 0.00002533 0.02786520
v -0.01610001 0.00005684 0.02783025
v -0.00210143 -0.00411376 0.02203636
v -0.00010164 -0.00406124 0.02196645
v -0.00010164 -0.00487015 0.02097021
v 0.00124805 -0.00841043 0.01639977
v 0.00750890 -0.00442892 0.02041966
v 0.01186181 -0.01022785 0.01217015
v 0.00950869 -0.01050099 0.01251096
v 0.01186181 0.04541877 0.02459685
v 0.01186181 0.04442076 0.02351323
v 0.00789755 0.04180494 0.02015749
v 0.00589775 0.04285547 0.02117121
v 0.00589775 0.04477794 0.02325980
v 0.00389796 0.04374842 0.02221114
v 0.00379903 0.04492502 0.02350449
v 0.00189816 0.04370640 0.02225483
v -0.00015110 0.04289749 0.02151202
v -0.00159265 0.04166837 0.02029732
v -0.00010164 0.03291745 0.01108652
v -0.00319673 0.02564777 0.00432262
v 0.00189816 0.03391545 0.01204780
v 0.00989735 0.02898846 0.00698798
v 0.00989735 0.02799046 0.00598301
v 0.00989735 0.02698195 0.00497803
v 0.00989735 0.02598394 0.00399054
v 0.00789755 0.01584632 -0.00586694
v 0.00225148 0.02178182 0.00019786
v -0.01610001 0.02192890 0.00205050
v -0.01772528 0.02179233 0.00218159
v -0.01750623 0.01975430 0.00023281
v -0.01610001 0.00836654 -0.01025386
v -0.01444647 0.00958516 -0.00961592
v -0.00710446 -0.00035286 -0.01966565
v -0.01809980 0.00795684 -0.00992178
v -0.01506831 0.01164420 -0.00766715
v -0.01806447 0.00652811 -0.01098793
v -0.00812909 -0.00398770 -0.02226110
v -0.00904772 -0.00450246 -0.02226110
v -0.01002289 -0.00523783 -0.02226110
v -0.01010768 -0.00531137 -0.02226110
v -0.01021368 -0.00540592 -0.02226110
v -0.01956255 -0.02046002 0.00052994
v -0.00311193 -0.03243608 -0.02226110
v -0.00221449 -0.03270921 -0.02226110
v -0.01809980 -0.02126893 -0.00066729
v -0.01809980 -0.02002931 0.00177960
v -0.01610001 -0.02017638 0.00204176
v -0.01610001 -0.01930444 0.00333512
v -0.01610001 -0.01848503 0.00451487
v -0.00010164 -0.00846296 0.01647842
v -0.00210143 -0.00492267 0.02103138
v -0.01410021 -0.01776016 0.00557228
v -0.00210143 -0.01648902 0.00649860
v -0.01410021 -0.02028143 0.00221654
v -0.01210041 -0.02101681 0.00122905
v -0.01210041 -0.02027093 0.00222528
v -0.00210143 -0.02006082 0.00194564
v -0.00010164 -0.00587866 0.01972055
v 0.00989735 -0.01406229 0.00795800
v 0.01088665 -0.01834846 0.00233015
v 0.01186181 -0.01462958 0.00664716
v 0.01186181 0.03577489 0.01418009
v 0.00789755 0.04083845 0.01915252
v 0.00589775 0.04184696 0.02011380
v 0.00989735 0.03490295 0.01308773
v -0.00010164 0.04172090 0.02024488
v 0.00389796 0.04280294 0.02120616
v 0.00589775 0.04088047 0.01910883
v -0.00610103 0.02041613 -0.00040513
v -0.00610103 0.02141414 0.00054741
v 0.00389796 0.03591146 0.01404901
v 0.00389796 0.03492396 0.01304403
v 0.00589775 0.03592196 0.01404027
v 0.00589775 0.03988247 0.01808638
v 0.00989735 0.03096346 0.00901540
v 0.01186181 0.02793793 0.00606166
v 0.01186181 0.02693993 0.00506542
v 0.01186181 0.02592091 0.00406045
v 0.00989735 0.01587784 -0.00588441
v 0.00189816 0.00325046 -0.01729741
v -0.00010164 0.00318743 -0.01725372
v -0.00010164 0.00424846 -0.01625748
v -0.00810082 0.02031108 -0.00030900
v -0.00410123 0.00405937 -0.01606523
v -0.01610001 0.01988036 0.00011921
v -0.00605156 -0.00322081 -0.02226110
v -0.00788883 -0.00388265 -0.02226110
v -0.00747898 0.00174820 -0.01776057
v -0.00610103 0.00186376 -0.01785670
v -0.00465948 -0.00290565 -0.02226110
v -0.00595263 -0.00318930 -0.02226110
v -0.00610103 0.00393330 -0.01595162
v -0.00610103 0.00286176 -0.01694785
v -0.01809980 -0.02059659 0.00077463
v -0.01506124 -0.02235098 -0.00169848
v -0.01610001 -0.02166813 -0.00066729
v -0.00176224 -0.03279326 -0.02226110
v -0.01410021 -0.02096428 0.00122031
v -0.00210143 -0.02078569 0.00094940
v -0.01210041 -0.02202532 -0.00044008
v -0.00294940 -0.02238250 -0.00161109
v 0.01009521 -0.01899979 0.00153491
v 0.00989735 -0.02010284 -0.00016044
v 0.01186181 -0.01884221 0.00108923
v 0.01186181 -0.01818037 0.00209420
v 0.01186181 0.03187742 0.01012524
v 0.00989735 0.03293846 0.01105157
v 0.00989735 0.03194046 0.01002038
v -0.00210143 0.00416442 -0.01617009
v 0.01186181 0.01563622 -0.00565720
v 0.01121170 0.01576228 -0.00577955
v 0.00989735 0.00431149 -0.01629244
v 0.00789755 0.00440604 -0.01637109
v 0.00189816 0.00225245 -0.01818878
v -0.00210143 0.00310338 -0.01716633
v -0.00010164 -0.00246443 -0.02226110
v -0.00129586 -0.00254847 -0.02226110
v -0.00314726 -0.00271656 -0.02226110
v -0.00410123 -0.00283212 -0.02226110
v -0.01427687 -0.02203582 -0.00076342
v -0.00005924 -0.03303488 -0.02226110
v -0.00221449 -0.02184672 -0.00083333
v 0.00189816 -0.03319246 -0.02226110
v 0.00389796 -0.03325549 -0.02226110
v 0.00428661 -0.03322397 -0.02226110
v 0.00585535 -0.03306639 -0.02226110
v 0.01186181 -0.03216294 -0.02226110
v 0.01186181 -0.01886322 0.00105427
v 0.01186181 -0.00306323 -0.02226110
v 0.01152262 -0.00293717 -0.02226110
v 0.00989735 0.00318743 -0.01728867
v 0.00789755 0.00327147 -0.01736732
v 0.00189816 -0.00241190 -0.02226110
v 0.00060501 -0.00244342 -0.02226110
v 0.00989735 -0.00262201 -0.02226110
v 0.00789755 -0.00246443 -0.02226110
v 0.00657613 -0.00241190 -0.02226110
v 0.00589775 -0.00239089 -0.02226110
v 0.00456220 -0.00239089 -0.02226110
f 1 2 3
f 1 3 4
f 1 4 5
f 1 5 6
f 1 6 7
f 1 7 18
f 1 18 34
f 1 34 71
f 1 71 107
f 1 107 148
f 1 148 214
f 1 214 287
f 1 287 368
f 1 368 462
f 1 462 550
f 1 550 554
f 1 554 553
f 1 553 625
f 1 625 685
f 1 685 739
f 1 739 783
f 1 783 782
f 1 782 806
f 1 806 805
f 1 805 807
f 1 807 788
f 1 788 756
f 1 756 755
f 1 755 754
f 1 754 784
f 1 784 740
f 1 740 688
f 1 688 687
f 1 687 628
f 1 628 627
f 1 627 626
f 1 626 555
f 1 555 463
f 1 463 369
f 1 369 290
f 1 290 219
f 1 219 218
f 1 218 217
f 1 217 216
f 1 216 215
f 1 215 149
f 1 149 111
f 1 111 110
f 1 110 109
f 1 109 108
f 1 108 73
f 1 73 72
f 1 72 35
f 1 35 19
f 1 19 8
f 1 8 9
f 1 9 10
f 1 10 11
f 1 11 2
f 2 12 13
f 2 13 14
f 2 14 4
f 2 4 3
f 2 11 12
f 4 14 15
f 4 15 16
f 4 16 5
f 5 16 6
f 6 16 17
f 6 17 7
f 7 17 18
f 8 19 20
f 8 20 21
f 8 21 9
f 9 21 22
f 9 22 11
f 9 11 10
f 11 22 23
f 11 23 24
f 11 24 25
f 11 25 26
f 11 26 27
f 11 27 12
f 12 27 28
f 12 28 13
f 13 28 14
f 14 29 15
f 14 28 30
f 14 30 31
f 14 31 29
f 15 29 16
f 16 29 17
f 17 29 18
f 18 29 32
f 18 32 33
f 18 33 34
f 19 35 20
f 20 35 36
f 20 36 21
f 21 36 37
f 21 37 38
f 21 38 39
f 21 39 40
f 21 40 41
f 21 41 22
f 22 41 42
f 22 42 40
f 22 40 43
f 22 43 44
f 22 44 23
f 23 45 46
f 23 46 24
f 23 44 45
f 24 47 25
f 24 46 47
f 25 47 46
f 25 46 48
f 25 48 49
f 25 49 50
f 25 50 51
f 25 51 26
f 26 51 52
f 26 52 53
f 26 53 54
f 26 54 27
f 27 54 55
f 27 55 56
f 27 56 57
f 27 57 28
f 28 57 56
f 28 56 58
f 28 58 30
f 29 31 59
f 29 59 32
f 30 58 31
f 31 60 61
f 31 61 62
f 31 62 63
f 31 63 64
f 31 64 59
f 31 58 60
f 32 59 33
f 33 59 65
f 33 65 34
f 34 65 66
f 34 66 67
f 34 67 68
f 34 68 69
f 34 69 70
f 34 70 71
f 35 72 36
f 36 72 73
f 36 73 74
f 36 74 37
f 37 74 75
f 37 75 76
f 37 76 77
f 37 77 38
f 38 77 78
f 38 78 39
f 39 44 43
f 39 43 40
f 39 78 44
f 40 42 41
f 44 78 79
f 44 79 45
f 45 79 46
f 46 80 48
f 46 79 81
f 46 81 82
f 46 82 80
f 48 80 83
f 48 83 84
f 48 84 49
f 49 85 86
f 49 86 50
f 49 84 85
f 50 86 87
f 50 87 88
f 50 88 52
f 50 52 51
f 52 88 89
f 52 89 53
f 53 89 90
f 53 90 54
f 54 90 91
f 54 91 55
f 55 91 92
f 55 92 93
f 55 93 94
f 55 94 58
f 55 58 56
f 58 94 95
f 58 95 60
f 59 64 63
f 59 63 65
f 60 95 96
f 60 96 97
f 60 97 61
f 61 97 98
f 61 98 99
f 61 99 62
f 62 99 100
f 62 100 101
f 62 101 63
f 63 101 102
f 63 102 67
f 63 67 66
f 63 66 65
f 67 102 68
f 68 102 103
f 68 103 104
f 68 104 105
f 68 105 69
f 69 105 70
f 70 105 71
f 71 105 106
f 71 106 107
f 73 108 74
f 74 108 109
f 74 109 75
f 75 110 111
f 75 111 112
f 75 112 113
f 75 113 114
f 75 114 115
f 75 115 76
f 75 109 110
f 76 115 77
f 77 116 117
f 77 117 118
f 77 118 78
f 77 115 119
f 77 119 120
f 77 120 116
f 78 118 121
f 78 121 82
f 78 82 81
f 78 81 79
f 80 82 122
f 80 122 123
f 80 123 83
f 82 121 118
f 82 118 122
f 83 124 84
f 83 123 124
f 84 124 125
f 84 125 85
f 85 125 86
f 86 126 87
f 86 125 127
f 86 127 128
f 86 128 126
f 87 129 88
f 87 126 130
f 87 130 131
f 87 131 132
f 87 132 129
f 88 129 133
f 88 133 92
f 88 92 89
f 89 92 90
f 90 92 91
f 92 134 135
f 92 135 93
f 92 133 134
f 93 135 136
f 93 136 137
f 93 137 138
f 93 138 94
f 94 138 139
f 94 139 96
f 94 96 95
f 96 139 140
f 96 140 141
f 96 141 142
f 96 142 98
f 96 98 97
f 98 142 143
f 98 143 99
f 99 143 144
f 99 144 100
f 100 145 102
f 100 102 101
f 100 144 210
f 100 210 145
f 102 145 103
f 103 145 104
f 104 145 146
f 104 146 105
f 105 146 106
f 106 146 147
f 106 147 148
f 106 148 107
f 111 149 150
f 111 150 112
f 112 150 151
f 112 151 152
f 112 152 153
f 112 153 113
f 113 153 154
f 113 154 155
f 113 155 114
f 114 155 119
f 114 119 115
f 116 120 156
f 116 156 157
f 116 157 158
f 116 158 159
f 116 159 160
f 116 160 161
f 116 161 162
f 116 162 117
f 117 163 122
f 117 122 118
f 117 162 164
f 117 164 165
f 117 165 166
f 117 166 167
f 117 167 168
f 117 168 169
f 117 169 123
f 117 123 163
f 119 155 156
f 119 156 120
f 122 163 123
f 123 169 124
f 124 169 168
f 124 168 170
f 124 170 171
f 124 171 172
f 124 172 125
f 125 172 173
f 125 173 174
f 125 174 175
f 125 175 127
f 126 128 130
f 127 175 176
f 127 176 177
f 127 177 178
f 127 178 128
f 128 178 179
f 128 179 180
f 128 180 181
f 128 181 130
f 129 182 133
f 129 132 182
f 130 181 183
f 130 183 184
f 130 184 131
f 131 185 186
f 131 186 132
f 131 184 187
f 131 187 188
f 131 188 189
f 131 189 185
f 132 186 185
f 132 185 190
f 132 190 191
f 132 191 192
f 132 192 182
f 133 182 193
f 133 193 134
f 134 193 136
f 134 136 135
f 136 192 137
f 136 193 192
f 137 194 195
f 137 195 196
f 137 196 138
f 137 192 194
f 138 196 139
f 139 196 197
f 139 197 140
f 140 197 198
f 140 198 199
f 140 199 200
f 140 200 141
f 141 200 201
f 141 201 202
f 141 202 142
f 142 202 201
f 142 201 203
f 142 203 204
f 142 204 205
f 142 205 143
f 143 205 206
f 143 206 207
f 143 207 208
f 143 208 209
f 143 209 144
f 144 209 210
f 145 210 146
f 146 210 211
f 146 211 147
f 147 211 212
f 147 212 213
f 147 213 148
f 148 213 214
f 149 215 150
f 150 215 151
f 151 216 217
f 151 217 218
f 151 218 219
f 151 219 220
f 151 220 221
f 151 221 152
f 151 215 216
f 152 221 153
f 153 221 222
f 153 222 223
f 153 223 224
f 153 224 154
f 154 224 225
f 154 225 156
f 154 156 155
f 156 225 157
f 157 225 224
f 157 224 226
f 157 226 227
f 157 227 228
f 157 228 158
f 158 228 159
f 159 228 160
f 160 228 229
f 160 229 161
f 161 230 162
f 161 229 231
f 161 231 232
f 161 232 233
f 161 233 234
f 161 234 235
f 161 235 230
f 162 230 236
f 162 236 165
f 162 165 164
f 165 236 237
f 165 237 238
f 165 238 166
f 166 238 167
f 167 238 239
f 167 239 240
f 167 240 170
f 167 170 168
f 170 241 242
f 170 242 171
f 170 240 241
f 171 242 243
f 171 243 173
f 171 173 172
f 173 243 244
f 173 244 245
f 173 245 174
f 174 246 175
f 174 245 247
f 174 247 248
f 174 248 246
f 175 246 248
f 175 248 176
f 176 248 179
f 176 179 177
f 177 179 178
f 179 248 249
f 179 249 250
f 179 250 251
f 179 251 252
f 179 252 180
f 180 183 181
f 180 252 253
f 180 253 188
f 180 188 183
f 182 192 193
f 183 188 254
f 183 254 184
f 184 254 188
f 184 188 187
f 185 255 256
f 185 256 257
f 185 257 258
f 185 258 191
f 185 191 190
f 185 189 259
f 185 259 255
f 188 253 260
f 188 260 261
f 188 261 262
f 188 262 189
f 189 262 263
f 189 263 264
f 189 264 259
f 191 258 257
f 191 257 265
f 191 265 194
f 191 194 192
f 194 265 195
f 195 266 196
f 195 265 267
f 195 267 268
f 195 268 266
f 196 266 197
f 197 266 269
f 197 269 270
f 197 270 198
f 198 271 272
f 198 272 273
f 198 273 200
f 198 200 199
f 198 270 271
f 200 273 274
f 200 274 201
f 201 274 275
f 201 275 203
f 203 275 276
f 203 276 204
f 204 276 206
f 204 206 205
f 206 276 207
f 207 276 277
f 207 277 208
f 208 277 276
f 208 276 278
f 208 278 209
f 209 279 210
f 209 278 280
f 209 280 279
f 210 279 211
f 211 279 281
f 211 281 282
f 211 282 283
f 211 283 284
f 211 284 212
f 212 284 285
f 212 285 286
f 212 286 213
f 213 286 214
f 214 286 287
f 219 288 289
f 219 289 220
f 219 290 288
f 220 291 221
f 220 289 292
f 220 292 291
f 221 291 293
f 221 293 222
f 222 293 294
f 222 294 223
f 223 294 295
f 223 295 296
f 223 296 224
f 224 296 297
f 224 297 298
f 224 298 299
f 224 299 226
f 226 299 298
f 226 298 300
f 226 300 227
f 227 300 301
f 227 301 302
f 227 302 303
f 227 303 304
f 227 304 228
f 228 304 303
f 228 303 305
f 228 305 229
f 229 305 306
f 229 306 231
f 230 307 236
f 230 235 308
f 230 308 309
f 230 309 310
f 230 310 307
f 231 306 232
f 232 306 233
f 233 311 234
f 233 306 312
f 233 312 313
f 233 313 314
f 233 314 308
f 233 308 311
f 234 311 235
f 235 311 315
f 235 315 308
f 236 307 237
f 237 307 316
f 237 316 241
f 237 241 239
f 237 239 238
f 239 241 240
f 241 244 242
f 241 316 317
f 241 317 318
f 241 318 319
f 241 319 244
f 242 244 243
f 244 319 245
f 245 320 321
f 245 321 322
f 245 322 323
f 245 323 247
f 245 319 320
f 247 323 324
f 247 324 325
f 247 325 248
f 248 325 249
f 249 326 327
f 249 327 328
f 249 328 329
f 249 329 330
f 249 330 250
f 249 325 324
f 249 324 326
f 250 331 329
f 250 329 251
f 250 330 331
f 251 332 253
f 251 253 252
f 251 329 333
f 251 333 332
f 253 332 334
f 253 334 335
f 253 335 336
f 253 336 260
f 255 337 338
f 255 338 339
f 255 339 256
f 255 259 340
f 255 340 337
f 256 339 267
f 256 267 257
f 257 267 265
f 259 264 341
f 259 341 340
f 260 336 261
f 261 336 342
f 261 342 262
f 262 342 263
f 263 342 343
f 263 343 264
f 264 344 345
f 264 345 346
f 264 346 347
f 264 347 341
f 264 343 344
f 266 268 269
f 267 339 348
f 267 348 349
f 267 349 268
f 268 349 269
f 269 271 270
f 269 349 350
f 269 350 271
f 271 350 272
f 272 350 351
f 272 351 352
f 272 352 353
f 272 353 354
f 272 354 274
f 272 274 273
f 274 355 275
f 274 354 355
f 275 355 356
f 275 356 276
f 276 357 278
f 276 356 358
f 276 358 357
f 278 359 360
f 278 360 280
f 278 357 361
f 278 361 359
f 279 280 360
f 279 360 281
f 281 360 359
f 281 359 282
f 282 359 283
f 283 359 362
f 283 362 363
f 283 363 284
f 284 364 285
f 284 363 365
f 284 365 364
f 285 364 366
f 285 366 367
f 285 367 368
f 285 368 286
f 286 368 287
f 288 290 289
f 289 290 369
f 289 369 370
f 289 370 371
f 289 371 372
f 289 372 373
f 289 373 292
f 291 374 293
f 291 292 375
f 291 375 374
f 292 376 375
f 292 373 372
f 292 372 377
f 292 377 376
f 293 374 295
f 293 295 294
f 295 374 378
f 295 378 297
f 295 297 296
f 297 379 298
f 297 378 380
f 297 380 376
f 297 376 381
f 297 381 379
f 298 379 301
f 298 301 300
f 301 382 302
f 301 379 381
f 301 381 376
f 301 376 382
f 302 382 383
f 302 383 384
f 302 384 303
f 303 384 306
f 303 306 305
f 306 384 385
f 306 385 386
f 306 386 312
f 307 310 387
f 307 387 388
f 307 388 317
f 307 317 316
f 308 314 309
f 308 315 311
f 309 314 389
f 309 389 390
f 309 390 391
f 309 391 310
f 310 391 392
f 310 392 387
f 312 386 393
f 312 393 313
f 313 393 314
f 314 393 389
f 317 388 394
f 317 394 395
f 317 395 396
f 317 396 318
f 318 397 319
f 318 396 397
f 319 397 320
f 320 396 398
f 320 398 399
f 320 399 327
f 320 327 400
f 320 400 401
f 320 401 321
f 320 397 396
f 321 401 400
f 321 400 322
f 322 400 326
f 322 326 323
f 323 326 324
f 326 400 327
f 327 399 402
f 327 402 329
f 327 329 328
f 329 403 404
f 329 404 405
f 329 405 333
f 329 331 330
f 329 402 406
f 329 406 399
f 329 399 403
f 332 333 407
f 332 407 334
f 333 405 408
f 333 408 409
f 333 409 407
f 334 336 335
f 334 407 409
f 334 409 408
f 334 408 410
f 334 410 504
f 334 504 411
f 334 411 336
f 336 411 342
f 337 340 412
f 337 412 338
f 338 348 339
f 338 412 348
f 340 341 347
f 340 347 413
f 340 413 414
f 340 414 412
f 342 415 343
f 342 411 416
f 342 416 415
f 343 415 344
f 344 416 417
f 344 417 345
f 344 415 416
f 345 418 346
f 345 417 419
f 345 419 420
f 345 420 421
f 345 421 418
f 346 422 347
f 346 418 421
f 346 421 423
f 346 423 422
f 347 422 424
f 347 424 413
f 348 351 349
f 348 412 425
f 348 425 426
f 348 426 351
f 349 351 427
f 349 427 350
f 350 427 351
f 351 426 428
f 351 428 429
f 351 429 430
f 351 430 352
f 352 430 431
f 352 431 432
f 352 432 433
f 352 433 434
f 352 434 353
f 353 435 354
f 353 434 433
f 353 433 435
f 354 435 436
f 354 436 437
f 354 437 438
f 354 438 439
f 354 439 355
f 355 439 440
f 355 440 356
f 356 440 441
f 356 441 442
f 356 442 358
f 357 358 361
f 358 442 443
f 358 443 444
f 358 444 361
f 359 361 445
f 359 445 446
f 359 446 443
f 359 443 362
f 361 444 445
f 362 443 447
f 362 447 448
f 362 448 449
f 362 449 450
f 362 450 363
f 363 450 451
f 363 451 452
f 363 452 453
f 363 453 454
f 363 454 455
f 363 455 365
f 364 365 366
f 365 455 456
f 365 456 457
f 365 457 366
f 366 457 367
f 367 457 456
f 367 456 458
f 367 458 459
f 367 459 460
f 367 460 368
f 368 460 461
f 368 461 462
f 369 463 370
f 370 463 464
f 370 464 371
f 371 464 465
f 371 465 466
f 371 466 372
f 372 466 467
f 372 467 377
f 374 375 378
f 375 380 378
f 375 376 380
f 376 377 468
f 376 468 382
f 377 467 468
f 382 467 469
f 382 469 383
f 382 468 467
f 383 469 471
f 383 471 470
f 383 470 384
f 384 470 471
f 384 471 472
f 384 472 473
f 384 473 474
f 384 474 385
f 385 474 475
f 385 475 386
f 386 475 476
f 386 476 477
f 386 477 393
f 387 392 478
f 387 478 388
f 388 478 394
f 389 393 477
f 389 477 479
f 389 479 480
f 389 480 390
f 390 480 391
f 391 480 481
f 391 481 482
f 391 482 483
f 391 483 392
f 392 483 484
f 392 484 478
f 394 478 485
f 394 485 395
f 395 485 486
f 395 486 487
f 395 487 398
f 395 398 396
f 398 487 488
f 398 488 489
f 398 489 490
f 398 490 399
f 399 490 491
f 399 491 492
f 399 492 493
f 399 493 403
f 399 406 402
f 403 493 404
f 404 493 494
f 404 494 495
f 404 495 496
f 404 496 497
f 404 497 498
f 404 498 499
f 404 499 405
f 405 499 500
f 405 500 501
f 405 501 408
f 408 502 410
f 408 501 503
f 408 503 502
f 410 502 503
f 410 503 504
f 411 504 503
f 411 503 505
f 411 505 506
f 411 506 416
f 412 414 425
f 413 424 507
f 413 507 414
f 414 508 426
f 414 426 425
f 414 507 509
f 414 509 510
f 414 510 508
f 416 511 417
f 416 506 512
f 416 512 513
f 416 513 514
f 416 514 515
f 416 515 516
f 416 516 511
f 417 511 516
f 417 516 517
f 417 517 419
f 419 517 516
f 419 516 515
f 419 515 514
f 419 514 513
f 419 513 512
f 419 512 506
f 419 506 505
f 419 505 503
f 419 503 501
f 419 501 500
f 419 500 499
f 419 499 498
f 419 498 497
f 419 497 496
f 419 496 495
f 419 495 589
f 419 589 656
f 419 656 655
f 419 655 719
f 419 719 718
f 419 718 717
f 419 717 716
f 419 716 715
f 419 715 765
f 419 765 764
f 419 764 769
f 419 769 768
f 419 768 797
f 419 797 796
f 419 796 795
f 419 795 794
f 419 794 812
f 419 812 811
f 419 811 817
f 419 817 816
f 419 816 815
f 419 815 814
f 419 814 813
f 419 813 808
f 419 808 807
f 419 807 805
f 419 805 804
f 419 804 803
f 419 803 802
f 419 802 801
f 419 801 799
f 419 799 775
f 419 775 722
f 419 722 721
f 419 721 661
f 419 661 660
f 419 660 595
f 419 595 519
f 419 519 423
f 419 423 421
f 419 421 420
f 422 518 424
f 422 423 518
f 423 519 518
f 424 518 520
f 424 520 507
f 426 508 521
f 426 521 429
f 426 429 428
f 429 521 522
f 429 522 430
f 430 522 523
f 430 523 524
f 430 524 431
f 431 524 432
f 432 524 433
f 433 524 525
f 433 525 526
f 433 526 527
f 433 527 528
f 433 528 529
f 433 529 530
f 433 530 531
f 433 531 532
f 433 532 533
f 433 533 534
f 433 534 435
f 435 534 535
f 435 535 436
f 436 535 536
f 436 536 537
f 436 537 437
f 437 537 438
f 438 537 440
f 438 440 439
f 440 537 538
f 440 538 441
f 441 448 539
f 441 539 442
f 441 538 448
f 442 539 443
f 443 539 448
f 443 448 447
f 443 446 444
f 444 446 445
f 448 538 450
f 448 450 449
f 450 538 540
f 450 540 541
f 450 541 451
f 451 541 544
f 451 544 452
f 452 542 543
f 452 543 453
f 452 544 542
f 453 543 454
f 454 543 542
f 454 542 545
f 454 545 546
f 454 546 547
f 454 547 455
f 455 547 548
f 455 548 459
f 455 459 458
f 455 458 456
f 459 548 460
f 460 548 549
f 460 549 461
f 461 550 462
f 461 549 551
f 461 551 552
f 461 552 553
f 461 553 554
f 461 554 550
f 463 555 464
f 464 555 556
f 464 556 465
f 465 556 557
f 465 557 558
f 465 558 466
f 466 559 560
f 466 560 467
f 466 558 559
f 467 560 561
f 467 561 471
f 467 471 469
f 471 561 562
f 471 562 472
f 472 562 563
f 472 563 564
f 472 564 473
f 473 564 565
f 473 565 566
f 473 566 474
f 474 566 475
f 475 566 567
f 475 567 476
f 476 567 568
f 476 568 569
f 476 569 477
f 477 569 570
f 477 570 479
f 478 484 571
f 478 571 485
f 479 570 480
f 480 570 572
f 480 572 481
f 481 572 573
f 481 573 483
f 481 483 482
f 483 573 574
f 483 574 575
f 483 575 576
f 483 576 484
f 484 576 577
f 484 577 578
f 484 578 579
f 484 579 571
f 485 571 578
f 485 578 488
f 485 488 486
f 486 488 487
f 488 578 580
f 488 580 489
f 489 580 581
f 489 581 582
f 489 582 490
f 490 582 491
f 491 582 583
f 491 583 492
f 492 583 584
f 492 584 585
f 492 585 493
f 493 585 586
f 493 586 587
f 493 587 494
f 494 587 495
f 495 588 589
f 495 587 586
f 495 586 588
f 507 520 509
f 508 522 521
f 508 510 522
f 509 520 510
f 510 520 590
f 510 590 591
f 510 591 592
f 510 592 522
f 518 519 593
f 518 593 594
f 518 594 520
f 519 595 593
f 520 594 590
f 522 592 596
f 522 596 523
f 523 596 592
f 523 592 597
f 523 597 598
f 523 598 599
f 523 599 600
f 523 600 524
f 524 600 601
f 524 601 525
f 525 602 527
f 525 527 526
f 525 601 603
f 525 603 602
f 527 604 528
f 527 602 667
f 527 667 605
f 527 605 606
f 527 606 607
f 527 607 604
f 528 604 608
f 528 608 609
f 528 609 529
f 529 609 610
f 529 610 530
f 530 610 611
f 530 611 531
f 531 612 613
f 531 613 532
f 531 611 612
f 532 613 614
f 532 614 533
f 533 614 540
f 533 540 536
f 533 536 535
f 533 535 534
f 536 540 538
f 536 538 537
f 540 614 615
f 540 615 541
f 541 615 616
f 541 616 544
f 542 544 616
f 542 616 617
f 542 617 545
f 545 617 618
f 545 618 546
f 546 618 619
f 546 619 620
f 546 620 621
f 546 621 622
f 546 622 548
f 546 548 547
f 548 622 551
f 548 551 549
f 551 622 621
f 551 621 620
f 551 620 623
f 551 623 552
f 552 623 624
f 552 624 625
f 552 625 553
f 555 626 556
f 556 626 627
f 556 627 557
f 557 627 628
f 557 628 629
f 557 629 558
f 558 629 559
f 559 629 630
f 559 630 631
f 559 631 560
f 560 631 630
f 560 630 632
f 560 632 633
f 560 633 634
f 560 634 563
f 560 563 562
f 560 562 561
f 563 634 635
f 563 635 636
f 563 636 564
f 564 636 637
f 564 637 638
f 564 638 565
f 565 638 639
f 565 639 566
f 566 639 640
f 566 640 567
f 567 640 641
f 567 641 642
f 567 642 568
f 568 642 570
f 568 570 569
f 570 642 643
f 570 643 572
f 571 579 578
f 572 643 644
f 572 644 573
f 573 644 645
f 573 645 646
f 573 646 575
f 573 575 574
f 575 647 648
f 575 648 576
f 575 646 649
f 575 649 647
f 576 648 650
f 576 650 577
f 577 580 578
f 577 650 651
f 577 651 581
f 577 581 580
f 581 651 582
f 582 652 653
f 582 653 584
f 582 584 583
f 582 651 654
f 582 654 652
f 584 653 655
f 584 655 588
f 584 588 586
f 584 586 585
f 588 655 656
f 588 656 589
f 590 657 591
f 590 594 593
f 590 593 658
f 590 658 657
f 591 657 659
f 591 659 597
f 591 597 592
f 593 595 660
f 593 660 661
f 593 661 658
f 597 659 662
f 597 662 663
f 597 663 598
f 598 663 599
f 599 663 664
f 599 664 665
f 599 665 666
f 599 666 603
f 599 603 601
f 599 601 600
f 602 603 666
f 602 666 667
f 604 668 608
f 604 607 606
f 604 606 669
f 604 669 670
f 604 670 668
f 605 667 606
f 606 667 671
f 606 671 672
f 606 672 673
f 606 673 669
f 608 674 675
f 608 675 611
f 608 611 610
f 608 610 609
f 608 668 674
f 611 675 676
f 611 676 677
f 611 677 678
f 611 678 612
f 612 678 613
f 613 678 614
f 614 678 615
f 615 678 679
f 615 679 616
f 616 679 617
f 617 679 677
f 617 677 680
f 617 680 681
f 617 681 618
f 618 681 619
f 619 681 682
f 619 682 683
f 619 683 684
f 619 684 624
f 619 624 623
f 619 623 620
f 624 685 625
f 624 684 683
f 624 683 686
f 624 686 685
f 628 687 629
f 629 687 688
f 629 688 689
f 629 689 690
f 629 690 691
f 629 691 630
f 630 691 692
f 630 692 693
f 630 693 632
f 632 693 694
f 632 694 633
f 633 694 695
f 633 695 634
f 634 695 635
f 635 695 696
f 635 696 697
f 635 697 636
f 636 697 637
f 637 698 638
f 637 697 699
f 637 699 700
f 637 700 701
f 637 701 702
f 637 702 703
f 637 703 704
f 637 704 705
f 637 705 698
f 638 698 706
f 638 706 639
f 639 706 707
f 639 707 640
f 640 707 641
f 641 643 642
f 641 707 644
f 641 644 643
f 644 707 708
f 644 708 645
f 645 708 649
f 645 649 646
f 647 709 712
f 647 712 648
f 647 649 710
f 647 710 711
f 647 711 709
f 648 712 650
f 649 713 710
f 649 708 713
f 650 712 714
f 650 714 652
f 650 652 654
f 650 654 651
f 652 714 715
f 652 715 716
f 652 716 717
f 652 717 653
f 653 717 718
f 653 718 719
f 653 719 655
f 657 658 720
f 657 720 662
f 657 662 659
f 658 661 721
f 658 721 722
f 658 722 723
f 658 723 720
f 662 720 724
f 662 724 663
f 663 724 664
f 664 724 725
f 664 725 665
f 665 725 666
f 666 725 726
f 666 726 727
f 666 727 667
f 667 727 671
f 668 728 729
f 668 729 680
f 668 680 674
f 668 670 728
f 669 673 730
f 669 730 670
f 670 730 731
f 670 731 728
f 671 727 672
f 672 727 732
f 672 732 733
f 672 733 734
f 672 734 673
f 673 734 735
f 673 735 730
f 674 680 676
f 674 676 675
f 676 680 677
f 677 679 678
f 680 729 736
f 680 736 682
f 680 682 681
f 682 736 683
f 683 736 728
f 683 728 731
f 683 731 735
f 683 735 737
f 683 737 686
f 685 686 738
f 685 738 739
f 686 737 738
f 688 740 689
f 689 741 746
f 689 746 742
f 689 742 690
f 689 740 743
f 689 743 741
f 690 742 744
f 690 744 745
f 690 745 694
f 690 694 692
f 690 692 691
f 692 694 693
f 694 745 744
f 694 744 695
f 695 744 696
f 696 744 697
f 697 744 742
f 697 742 746
f 697 746 699
f 698 705 747
f 698 747 748
f 698 748 706
f 699 746 749
f 699 749 750
f 699 750 700
f 700 751 752
f 700 752 746
f 700 746 753
f 700 753 754
f 700 754 701
f 700 750 751
f 701 754 755
f 701 755 702
f 702 755 703
f 703 755 756
f 703 756 757
f 703 757 704
f 704 757 758
f 704 758 759
f 704 759 760
f 704 760 705
f 705 760 747
f 706 748 761
f 706 761 762
f 706 762 763
f 706 763 707
f 707 763 708
f 708 763 713
f 709 711 764
f 709 764 765
f 709 765 712
f 710 713 766
f 710 766 711
f 711 766 767
f 711 767 768
f 711 768 769
f 711 769 764
f 712 765 715
f 712 715 714
f 713 770 771
f 713 771 767
f 713 767 766
f 713 763 770
f 720 772 724
f 720 723 773
f 720 773 774
f 720 774 772
f 722 775 773
f 722 773 723
f 724 772 776
f 724 776 725
f 725 776 726
f 726 776 732
f 726 732 727
f 728 736 729
f 730 735 731
f 732 776 733
f 733 777 735
f 733 735 734
f 733 776 778
f 733 778 779
f 733 779 777
f 735 777 738
f 735 738 737
f 738 777 780
f 738 780 781
f 738 781 782
f 738 782 783
f 738 783 739
f 740 784 743
f 741 743 785
f 741 785 746
f 743 784 785
f 746 785 786
f 746 786 753
f 746 752 749
f 747 760 787
f 747 787 761
f 747 761 748
f 749 752 751
f 749 751 750
f 753 786 754
f 754 786 784
f 756 788 789
f 756 789 757
f 757 789 790
f 757 790 791
f 757 791 758
f 758 791 792
f 758 792 759
f 759 793 787
f 759 787 760
f 759 792 794
f 759 794 795
f 759 795 796
f 759 796 793
f 761 787 762
f 762 787 793
f 762 793 771
f 762 771 770
f 762 770 763
f 767 796 797
f 767 797 768
f 767 771 793
f 767 793 796
f 772 774 798
f 772 798 776
f 773 798 774
f 773 775 799
f 773 799 798
f 776 798 778
f 777 800 781
f 777 781 780
f 777 779 800
f 778 798 801
f 778 801 802
f 778 802 779
f 779 781 800
f 779 802 803
f 779 803 804
f 779 804 781
f 781 804 805
f 781 805 806
f 781 806 782
f 784 786 785
f 788 807 789
f 789 807 808
f 789 808 809
f 789 809 790
f 790 809 791
f 791 809 810
f 791 810 792
f 792 811 812
f 792 812 794
f 792 810 811
f 798 799 801
f 808 813 809
f 809 813 810
f 810 813 814
f 810 814 815
f 810 815 816
f 810 816 817
f 810 817 811

