# https://github.com/mikedh/trimesh
v 0.00590575 -0.00239483 -0.02226984
v 0.00190233 -0.00241696 -0.02226984
v 0.00790184 -0.00247230 -0.02226984
v 0.01589744 -0.04465283 -0.07133548
v 0.00061471 -0.00245017 -0.02226984
v 0.00990355 -0.00262726 -0.02226984
v 0.01789915 -0.04574857 -0.07238582
v 0.01892249 -0.05036396 -0.07766750
v 0.01789915 -0.05221234 -0.07983819
v 0.01390135 -0.04470817 -0.07130547
v -0.00009376 -0.00247230 -0.02226984
v 0.01152291 -0.00294823 -0.02226984
v 0.02026071 -0.05044144 -0.07756747
v 0.01789915 -0.04475244 -0.07119544
v 0.01971530 -0.05114980 -0.07846776
v 0.01989523 -0.05228981 -0.07975817
v 0.01989523 -0.05317526 -0.08075849
v 0.01989523 -0.05417139 -0.08186884
v 0.01789915 -0.05314206 -0.08083852
v 0.01589744 -0.05226768 -0.07976817
v 0.01484597 -0.05234515 -0.07967814
v 0.01190526 -0.04396660 -0.07011509
v -0.00465383 -0.00291503 -0.02226984
v -0.00409718 -0.00284862 -0.02226984
v -0.00314131 -0.00273794 -0.02226984
v -0.00209547 -0.00262726 -0.02226984
v -0.00129141 -0.00256085 -0.02226984
v 0.01201209 -0.00312532 -0.02226984
v 0.02389866 -0.05373973 -0.08043838
v 0.02389866 -0.05453664 -0.08143870
v 0.02189694 -0.05060746 -0.07734740
v 0.02229054 -0.05248904 -0.07951809
v 0.02281346 -0.05438168 -0.08164878
v 0.02095794 -0.05235622 -0.07967814
v 0.02148086 -0.05425994 -0.08177881
v 0.01789915 -0.05413818 -0.08187884
v 0.02189694 -0.05621899 -0.08381946
v 0.02389866 -0.06214042 -0.08989140
v 0.02189694 -0.06204081 -0.08998143
v 0.01589744 -0.05425994 -0.08176881
v 0.01489096 -0.05435955 -0.08166878
v 0.01351900 -0.05258865 -0.07945807
v 0.01041522 -0.04415476 -0.06989503
v 0.01190526 -0.04491846 -0.07111541
v -0.00597519 -0.00320280 -0.02226984
v 0.01390135 -0.00407718 -0.02226984
v 0.02536058 -0.05407178 -0.08004826
v 0.02389866 -0.05274361 -0.07916798
v 0.02590036 -0.05596442 -0.08215894
v 0.02590036 -0.05676132 -0.08315925
v 0.02449467 -0.05647355 -0.08353937
v 0.02316207 -0.05629647 -0.08373944
v 0.02189694 -0.06303694 -0.09098175
v 0.02189694 -0.06403306 -0.09196206
v 0.01989523 -0.06413268 -0.09187203
v 0.02516940 -0.06227324 -0.08975135
v 0.02674941 -0.06637950 -0.09364259
v 0.02389866 -0.06311441 -0.09089172
v 0.01864698 -0.06425443 -0.09175199
v 0.01356398 -0.05470266 -0.08138869
v 0.01730875 -0.06456433 -0.09149191
v 0.01233259 -0.05391682 -0.08005827
v 0.01190526 -0.05196884 -0.07806763
v 0.01067387 -0.05020901 -0.07581691
v 0.00908262 -0.04445360 -0.06959493
v -0.00788693 -0.00388902 -0.02226984
v 0.01529580 -0.00508437 -0.02226984
v 0.02699681 -0.05628540 -0.08177881
v 0.02723859 -0.05811163 -0.08395951
v 0.02789645 -0.06193013 -0.08817085
v 0.02789645 -0.06277130 -0.08917117
v 0.02590036 -0.05775745 -0.08433963
v 0.02650200 -0.06247246 -0.08954129
v 0.02493887 -0.06033632 -0.08768069
v 0.02389866 -0.06412161 -0.09189204
v 0.02389866 -0.06516201 -0.09289236
v 0.02389866 -0.06615814 -0.09384266
v 0.02189694 -0.06613600 -0.09386267
v 0.02073865 -0.06831642 -0.09569325
v 0.01970968 -0.06548299 -0.09303240
v 0.01891687 -0.06635737 -0.09366260
v 0.02645140 -0.06840496 -0.09562323
v 0.02541681 -0.06626882 -0.09375263
v 0.02789645 -0.06655659 -0.09343253
v 0.02789645 -0.06756379 -0.09444285
v 0.02789645 -0.06858206 -0.09544317
v 0.02789645 -0.07161471 -0.09837411
v 0.01250127 -0.05604190 -0.08191886
v 0.01940605 -0.06847137 -0.09556321
v 0.01789915 -0.06893623 -0.09521310
v 0.01645971 -0.06589251 -0.09201208
v 0.01079195 -0.05226768 -0.07774753
v 0.00650739 -0.04209610 -0.06593376
v -0.00904523 -0.00450883 -0.02226984
v -0.00811747 -0.00399970 -0.02226984
v 0.02857119 -0.05863183 -0.08326929
v 0.01564441 -0.00546069 -0.02226984
v 0.03090464 -0.06235071 -0.08568006
v 0.03111831 -0.06411054 -0.08799079
v 0.03037610 -0.06278237 -0.08701048
v 0.02877923 -0.06042486 -0.08555002
v 0.02904350 -0.06225110 -0.08780073
v 0.02942023 -0.06602532 -0.09205209
v 0.02789645 -0.06566007 -0.09243221
v 0.02590036 -0.07043043 -0.09759386
v 0.02389866 -0.07038615 -0.09763387
v 0.02189694 -0.06726495 -0.09486299
v 0.02189694 -0.06827215 -0.09574326
v 0.02189694 -0.06935682 -0.09668356
v 0.02189694 -0.07043043 -0.09760386
v 0.02189694 -0.07142656 -0.09843412
v 0.02000207 -0.06922400 -0.09629344
v 0.02789645 -0.07267725 -0.09937442
v 0.02956080 -0.06794010 -0.09408274
v 0.02989816 -0.07197996 -0.09805401
v 0.03112955 -0.07822237 -0.10379583
v 0.02989816 -0.07804528 -0.10396589
v 0.01116868 -0.05660637 -0.08147872
v 0.01989523 -0.07068499 -0.09742380
v 0.01989523 -0.07169219 -0.09818405
v 0.01857950 -0.07204637 -0.09789395
v 0.01789915 -0.06994343 -0.09597334
v 0.01689267 -0.07035295 -0.09567324
v 0.01300170 -0.06045807 -0.08561003
v 0.00865529 -0.05205738 -0.07590694
v 0.00695721 -0.04842705 -0.07163558
v 0.00681102 -0.04626877 -0.06976498
v 0.00516917 -0.04262736 -0.06547362
v -0.01010231 -0.00531680 -0.02226984
v -0.01001797 -0.00525040 -0.02226984
v 0.01666776 -0.00660070 -0.02226984
v 0.03246215 -0.06498492 -0.08667037
v 0.03135446 -0.06341325 -0.08647031
v 0.01712320 -0.00719838 -0.02226984
v 0.03075283 -0.06644591 -0.09153192
v 0.03055603 -0.06460861 -0.08932122
v 0.03279389 -0.06847137 -0.09148191
v 0.03295133 -0.07028654 -0.09373263
v 0.03089339 -0.06836069 -0.09366260
v 0.02789645 -0.07899713 -0.10508625
v 0.02590036 -0.07255550 -0.09949447
v 0.02789645 -0.07999326 -0.10595652
v 0.02389866 -0.07138228 -0.09849414
v 0.02389866 -0.07255550 -0.09949447
v 0.02590036 -0.07908568 -0.10507624
v 0.02189694 -0.07266618 -0.09943444
v 0.03107895 -0.07224560 -0.09778392
v 0.02989816 -0.07915209 -0.10496621
v 0.03246215 -0.07859868 -0.10338570
v 0.03389596 -0.08402205 -0.10800718
v 0.03189987 -0.08361253 -0.10839730
v 0.01057266 -0.05794561 -0.08195887
v 0.02253794 -0.07817809 -0.10380584
v 0.02068242 -0.07620797 -0.10177519
v 0.01892249 -0.07437067 -0.09965452
v 0.01085942 -0.06029205 -0.08370943
v 0.01844456 -0.07569884 -0.10008465
v 0.01877630 -0.07814489 -0.10178519
v 0.01683644 -0.07422678 -0.09773390
v 0.01489658 -0.07035295 -0.09367261
v 0.00885209 -0.06025884 -0.08171879
v 0.00924006 -0.05893067 -0.08131867
v 0.00981358 -0.05725939 -0.08072848
v 0.00906013 -0.05658423 -0.07950809
v 0.00650177 -0.04975522 -0.07210573
v -0.01209277 -0.00747508 -0.02226984
v -0.01116502 -0.00629080 -0.02226984
v 0.03308628 -0.06598105 -0.08667037
v 0.03293447 -0.06630203 -0.08775072
v 0.03311439 -0.06805078 -0.09014148
v 0.01737060 -0.00763004 -0.02226984
v 0.03327183 -0.07401649 -0.09802399
v 0.03544223 -0.07533359 -0.09657353
v 0.03518920 -0.07598661 -0.09804400
v 0.03460443 -0.07465844 -0.09717372
v 0.03241155 -0.07267725 -0.09724375
v 0.02989816 -0.08014822 -0.10583648
v 0.02989816 -0.08454225 -0.10950766
v 0.02789645 -0.08453118 -0.10951766
v 0.02590036 -0.08467507 -0.10946764
v 0.02389866 -0.07802314 -0.10395588
v 0.03240030 -0.07465844 -0.09935442
v 0.03493055 -0.08433196 -0.10768708
v 0.03740458 -0.09990477 -0.12008103
v 0.03629127 -0.09857660 -0.11946083
v 0.03189987 -0.08476361 -0.10939762
v 0.02389866 -0.08505138 -0.10920756
v 0.02286406 -0.08632421 -0.10968771
v 0.02113225 -0.08463080 -0.10752703
v 0.02072178 -0.08597004 -0.10785713
v 0.01874256 -0.08202979 -0.10384585
v 0.01902370 -0.08470827 -0.10550638
v 0.01881004 -0.08603644 -0.10578647
v 0.00870027 -0.06135458 -0.08191886
v 0.00791871 -0.06135458 -0.08066846
v 0.00690098 -0.05835513 -0.07766750
v -0.01405513 -0.01135999 -0.02226984
v -0.01397078 -0.01113862 -0.02226984
v -0.01336915 -0.00973298 -0.02226984
v 0.00497799 -0.04851559 -0.06957492
v -0.01277313 -0.00857083 -0.02226984
v 0.03468877 -0.07071820 -0.09066165
v 0.01850640 -0.00977725 -0.02226984
v 0.03692664 -0.08432089 -0.10571645
v 0.03626315 -0.08489643 -0.10704687
v 0.03656678 -0.07735905 -0.09676359
v 0.03901832 -0.08614713 -0.10396589
v 0.03821988 -0.08542770 -0.10464611
v 0.03495867 -0.09833310 -0.11968090
v 0.03476187 -0.09833310 -0.11968090
v 0.03342365 -0.09845485 -0.11960088
v 0.02389866 -0.08604751 -0.10981775
v 0.03697725 -0.08623567 -0.10776710
v 0.03861347 -0.10253898 -0.12156150
v 0.03728088 -0.10212946 -0.12176156
v 0.03573461 -0.09928496 -0.12022107
v 0.03234970 -0.09979409 -0.11994098
v 0.03177055 -0.09921855 -0.11942082
v 0.03101710 -0.10096731 -0.11959087
v 0.02154271 -0.08735355 -0.10920756
v 0.02041253 -0.08735355 -0.10820724
v 0.01941167 -0.08735355 -0.10705688
v 0.01865260 -0.08735355 -0.10605656
v 0.00848099 -0.06335791 -0.08224896
v 0.00755885 -0.06335791 -0.08066846
v 0.00712027 -0.06135458 -0.07923801
v -0.01433064 -0.01250000 -0.02226984
v -0.01317235 -0.00932346 -0.02226984
v 0.03518358 -0.07171433 -0.09066165
v 0.01903495 -0.01108328 -0.02226984
v 0.03675233 -0.07677244 -0.09466292
v 0.03725276 -0.08548304 -0.10649669
v 0.03700536 -0.07803421 -0.09616340
v 0.03955810 -0.08735355 -0.10266547
v 0.04087946 -0.09639618 -0.11149829
v 0.04104814 -0.10003759 -0.11600973
v 0.03872031 -0.08676694 -0.10529631
v 0.03589767 -0.10101158 -0.12135143
v 0.03401404 -0.09921855 -0.12014104
v 0.04069953 -0.10066847 -0.11735016
v 0.04074451 -0.10262753 -0.11938080
v 0.03940629 -0.10181955 -0.12023108
v 0.03995170 -0.10324734 -0.12074124
v 0.03916451 -0.10386715 -0.12189160
v 0.03792750 -0.10325840 -0.12204165
v 0.03589767 -0.10201878 -0.12179157
v 0.03991234 -0.11124957 -0.12414232
v 0.03399155 -0.10142110 -0.12120139
v 0.03177055 -0.10152071 -0.12011104
v 0.03089339 -0.10229548 -0.11967089
v 0.02116598 -0.08935687 -0.10949765
v 0.02012577 -0.08935687 -0.10849734
v 0.01912491 -0.08935687 -0.10736698
v 0.01850078 -0.08935687 -0.10636665
v 0.00737330 -0.06535017 -0.08066846
v 0.00697970 -0.06335791 -0.07950809
v -0.00277582 -0.04343534 -0.05450012
v -0.01445997 -0.01333011 -0.02226984
v 0.01960285 -0.01336331 -0.02226984
v 0.03706159 -0.07776857 -0.09466292
v 0.03942316 -0.08735355 -0.10066484
v 0.03993483 -0.08935687 -0.10266547
v 0.04114935 -0.09718202 -0.11076806
v 0.04108750 -0.09780183 -0.11266867
v 0.04128992 -0.10134362 -0.11666994
v 0.04131804 -0.10331374 -0.11869058
v 0.04105939 -0.10200771 -0.11804037
v 0.03471689 -0.10212946 -0.12174155
v 0.04106501 -0.10395570 -0.11992098
v 0.04130117 -0.11184725 -0.12399227
v 0.03989547 -0.11335251 -0.12446242
v 0.03788251 -0.11133812 -0.12402228
v 0.03361482 -0.10335802 -0.12131142
v 0.03674109 -0.11200220 -0.12379222
v 0.03089339 -0.10241723 -0.11967089
v 0.01909117 -0.09134913 -0.10743699
v 0.01847267 -0.09134913 -0.10643668
v 0.00692347 -0.06535017 -0.07961812
v -0.00310757 -0.04415476 -0.05371987
v -0.01451619 -0.01460294 -0.02226984
v 0.01986712 -0.01536664 -0.02226984
v 0.03893397 -0.08621353 -0.09751383
v 0.03967056 -0.08935687 -0.10066484
v 0.04146423 -0.09935137 -0.11066802
v 0.04140800 -0.09935137 -0.11266867
v 0.04186344 -0.10335802 -0.11666994
v 0.04292615 -0.11222356 -0.12174155
v 0.04138551 -0.11335251 -0.12406230
v 0.04114373 -0.11457000 -0.12387224
v 0.03989547 -0.11468068 -0.12395227
v 0.03863597 -0.11457000 -0.12385223
v 0.03793874 -0.11327503 -0.12406230
v 0.03674109 -0.11255561 -0.12379222
v 0.03107895 -0.10535028 -0.11951084
v 0.03015681 -0.10319199 -0.11882063
v 0.02898165 -0.10335802 -0.11757022
v 0.01862448 -0.09290973 -0.10616659
v 0.02912784 -0.10535028 -0.11727013
v 0.01779794 -0.09134913 -0.10466611
v 0.00739017 -0.06735349 -0.08066846
v 0.00655799 -0.06535017 -0.07861781
v -0.00310757 -0.04438719 -0.05371987
v -0.01443747 -0.01536664 -0.02226984
v 0.01982214 -0.01776842 -0.02226984
v 0.03870906 -0.08735355 -0.09638347
v 0.03896771 -0.08735355 -0.09738379
v 0.03967056 -0.09134913 -0.10066484
v 0.04093568 -0.09786824 -0.10754703
v 0.04112124 -0.09928496 -0.10859736
v 0.04292615 -0.11246706 -0.12153149
v 0.04292615 -0.11222356 -0.12153149
v 0.04292615 -0.11246706 -0.12174155
v 0.04238074 -0.11321969 -0.12251180
v 0.04144736 -0.11483564 -0.12266185
v 0.03989547 -0.11538904 -0.12266185
v 0.03793874 -0.11494632 -0.12263184
v 0.03661739 -0.11460321 -0.12194162
v 0.03730337 -0.11389485 -0.12327205
v 0.03467191 -0.11265522 -0.12189160
v 0.03012307 -0.10535028 -0.11851053
v 0.01866947 -0.09476917 -0.10419596
v 0.01836021 -0.09348528 -0.10478615
v 0.02854307 -0.10535028 -0.11626981
v 0.03093275 -0.11025344 -0.11751021
v 0.02277410 -0.10062420 -0.10796716
v 0.03043233 -0.10735360 -0.11827045
v 0.03071909 -0.10892527 -0.11794034
v 0.00784561 -0.07134908 -0.08066846
v 0.00751949 -0.06935682 -0.08066846
v 0.00587201 -0.06535017 -0.07666719
v -0.01356032 -0.02136555 -0.02226984
v -0.01359406 -0.02119953 -0.02226984
v -0.01427441 -0.01671695 -0.02226984
v 0.00536596 -0.06535017 -0.07466654
v 0.00584390 -0.06735349 -0.07466654
v 0.00488240 -0.06642377 -0.06980500
v 0.01973780 -0.02136555 -0.02226984
v 0.03896209 -0.08891415 -0.09744381
v 0.03888337 -0.09024232 -0.09770389
v 0.04093568 -0.09856553 -0.10754703
v 0.04098629 -0.10852682 -0.11352894
v 0.04105376 -0.11061869 -0.11539954
v 0.04236949 -0.11321969 -0.12078125
v 0.04103689 -0.10135469 -0.10929759
v 0.04133490 -0.11473602 -0.12066121
v 0.03989547 -0.11540011 -0.12066121
v 0.03789938 -0.11545545 -0.12066121
v 0.03593141 -0.11472496 -0.12053117
v 0.03483497 -0.11439291 -0.11977093
v 0.03528479 -0.11398339 -0.12110135
v 0.03432891 -0.11333037 -0.12053117
v 0.03291197 -0.11230104 -0.11960088
v 0.01853452 -0.09514549 -0.10266547
v 0.01790477 -0.09335246 -0.10266547
v 0.01905182 -0.09614162 -0.10266547
v 0.03079781 -0.11047480 -0.11617978
v 0.02439346 -0.10309238 -0.10866739
v 0.00807614 -0.07335241 -0.07866782
v 0.00752511 -0.07134908 -0.07866782
v -0.01340851 -0.02194109 -0.02226984
v 0.00778376 -0.07335241 -0.07666719
v 0.00417956 -0.06535017 -0.06667400
v 0.01959160 -0.02334674 -0.02226984
v 0.03866408 -0.08948969 -0.09673358
v 0.03880465 -0.09134913 -0.09795397
v 0.04080636 -0.09990477 -0.10788714
v 0.03933882 -0.09348528 -0.10050478
v 0.04091882 -0.10241723 -0.10962770
v 0.03887775 -0.09424897 -0.09972453
v 0.03863034 -0.09348528 -0.09866420
v 0.03810743 -0.09535578 -0.09866420
v 0.03681419 -0.09207962 -0.09382265
v 0.03700536 -0.09662862 -0.09751383
v 0.03670173 -0.09795679 -0.09813403
v 0.03499803 -0.10440948 -0.10158513
v 0.04048024 -0.11194686 -0.11613977
v 0.04099191 -0.11443718 -0.11957087
v 0.04134614 -0.11324183 -0.11881062
v 0.03536913 -0.09890864 -0.09713371
v 0.03989547 -0.11470282 -0.11912072
v 0.03868657 -0.11432650 -0.11771027
v 0.03797248 -0.11481350 -0.11849052
v 0.03653867 -0.11440398 -0.11754022
v 0.03588080 -0.11461427 -0.11867058
v 0.03483497 -0.11439291 -0.11933079
v 0.03275453 -0.11247813 -0.11827045
v 0.00882397 -0.07649574 -0.07466654
v 0.00885209 -0.07645147 -0.07666719
v 0.00890269 -0.07636292 -0.07768751
v 0.00898704 -0.07608622 -0.07901793
v 0.02506819 -0.10408851 -0.10866739
v 0.02070491 -0.09855446 -0.10210530
v 0.01990648 -0.09735911 -0.10066484
v 0.01906306 -0.09604200 -0.10066484
v 0.03079781 -0.11047480 -0.11508944
v 0.02498385 -0.10429880 -0.10266547
v -0.01309925 -0.02295935 -0.02226984
v 0.00843600 -0.07535573 -0.07666719
v 0.00758134 -0.07335241 -0.07466654
v 0.00404461 -0.06535017 -0.06467336
v 0.01916427 -0.02507336 -0.02226984
v 0.03700536 -0.09075145 -0.09346254
v 0.03788814 -0.08935687 -0.09466292
v 0.03830985 -0.09134913 -0.09666356
v 0.03736522 -0.09139340 -0.09456289
v 0.03437390 -0.08734248 -0.08675040
v 0.03491368 -0.09038620 -0.08964132
v 0.03505988 -0.09264410 -0.09142189
v 0.02928528 -0.09655114 -0.08943125
v 0.03127574 -0.10250577 -0.09748382
v 0.03389596 -0.10455337 -0.10140507
v 0.03797248 -0.11389485 -0.11678997
v 0.03914764 -0.11255561 -0.11543955
v 0.03276016 -0.09418257 -0.08982138
v 0.03073596 -0.09420470 -0.08778073
v 0.02940336 -0.09464742 -0.08733058
v 0.03464379 -0.09397227 -0.09200207
v 0.03394094 -0.09341886 -0.09062163
v 0.03324372 -0.09285439 -0.08927120
v 0.03735397 -0.11440398 -0.11754022
v 0.03070222 -0.10842721 -0.10753703
v 0.03588080 -0.11392805 -0.11678997
v 0.03520607 -0.11430437 -0.11800036
v 0.03080343 -0.10636854 -0.10363578
v 0.03285575 -0.11238959 -0.11560960
v 0.03276016 -0.11247813 -0.11666994
v 0.00886333 -0.07642933 -0.07340614
v 0.00466312 -0.06680009 -0.06467336
v 0.00833479 -0.07535573 -0.07466654
v 0.02073865 -0.09852126 -0.10066484
v 0.01532953 -0.08774093 -0.08466974
v 0.01046583 -0.07893073 -0.07466654
v 0.02627709 -0.10450910 -0.10143508
v 0.02080613 -0.09441499 -0.08753065
v 0.01893936 -0.09232312 -0.08577008
v 0.01873694 -0.09253342 -0.08710051
v 0.01853452 -0.09278798 -0.08867101
v 0.01697701 -0.09026445 -0.08616021
v 0.01915303 -0.09408295 -0.09066165
v 0.01833772 -0.09308682 -0.09066165
v -0.01191285 -0.02521725 -0.02226984
v 0.01854014 -0.02637940 -0.02226984
v 0.03305254 -0.08858211 -0.08546999
v 0.03332806 -0.08735355 -0.08507987
v 0.02688997 -0.09434858 -0.08567006
v 0.02989816 -0.10263859 -0.09728376
v 0.03113517 -0.08863744 -0.08341934
v 0.02912784 -0.08860424 -0.08145871
v 0.02687873 -0.08433196 -0.07567687
v 0.02545054 -0.08284883 -0.07320608
v 0.02700805 -0.08843822 -0.07957811
v 0.02700805 -0.09041941 -0.08159875
v 0.02789645 -0.09408295 -0.08592013
v 0.03100585 -0.10636854 -0.10363578
v 0.02789645 -0.10465299 -0.10125503
v 0.02829567 -0.10258325 -0.09734377
v 0.00957181 -0.07719303 -0.07272593
v 0.00898141 -0.07621904 -0.07208572
v 0.00478682 -0.06655659 -0.06267272
v 0.01289487 -0.08236183 -0.07564686
v 0.01067949 -0.07862082 -0.07267591
v 0.02284719 -0.09437072 -0.08563004
v 0.02080613 -0.09240060 -0.08358939
v 0.02035630 -0.09271050 -0.08466974
v 0.01889438 -0.09035300 -0.08166878
v 0.01707822 -0.08820579 -0.08001825
v 0.01678021 -0.08848249 -0.08135868
v 0.01718505 -0.09004310 -0.08466974
v -0.01126623 -0.02615803 -0.02226984
v 0.00489927 -0.06636843 -0.06164239
v 0.00505671 -0.06610280 -0.06031197
v 0.01797224 -0.02736446 -0.02226984
v 0.02713175 -0.07869829 -0.07140551
v 0.01770235 -0.02779611 -0.02226984
v 0.01707260 -0.02879224 -0.02226984
v 0.02453403 -0.08618033 -0.07584692
v 0.02319581 -0.08647917 -0.07552682
v 0.02301588 -0.08839395 -0.07761749
v 0.02555738 -0.09447033 -0.08550000
v 0.02389866 -0.09445927 -0.08552001
v 0.02726670 -0.08088978 -0.07325610
v 0.02678314 -0.08221795 -0.07377627
v 0.02530997 -0.08079017 -0.07130547
v 0.02448342 -0.08212940 -0.07187565
v 0.02456214 -0.08417700 -0.07383628
v 0.02296527 -0.07641827 -0.06562366
v 0.00916134 -0.07596447 -0.07067527
v 0.00695721 -0.07027547 -0.06392312
v 0.00542782 -0.06755272 -0.06267272
v 0.01318725 -0.08208513 -0.07431643
v 0.01111245 -0.07815596 -0.07018512
v 0.01084818 -0.07841052 -0.07151554
v 0.01027465 -0.07743653 -0.07077531
v 0.02053623 -0.08842715 -0.07756747
v 0.01920363 -0.08829434 -0.07777754
v 0.01841644 -0.08868172 -0.07910796
v 0.01669025 -0.08654558 -0.07732740
v 0.01493594 -0.08432089 -0.07576690
v -0.01092886 -0.02661183 -0.02226984
v 0.00690098 -0.06836069 -0.05967176
v 0.00642867 -0.06901371 -0.06267272
v 0.00673230 -0.06857099 -0.06067208
v 0.02505133 -0.07654001 -0.06752427
v 0.01588057 -0.03000973 -0.02226984
v 0.02388179 -0.08533916 -0.07467655
v 0.02189694 -0.08571547 -0.07434644
v 0.02189694 -0.08662305 -0.07533676
v 0.02322392 -0.08449798 -0.07351618
v 0.01976029 -0.07704915 -0.06459334
v 0.01900121 -0.07638506 -0.06364303
v 0.02189694 -0.08843822 -0.07755747
v 0.02189694 -0.08763025 -0.07655715
v 0.02189694 -0.08929046 -0.07866782
v 0.02389866 -0.09372877 -0.08451969
v 0.02518065 -0.07867616 -0.06940487
v 0.02189694 -0.07675031 -0.06528355
v 0.02033943 -0.07611943 -0.06387311
v 0.01937231 -0.06675582 -0.05531037
v 0.01409815 -0.03137111 -0.02226984
v 0.00950995 -0.07557709 -0.06867464
v 0.00889707 -0.07435960 -0.06766431
v 0.00862155 -0.07272152 -0.06467336
v 0.01282740 -0.08042492 -0.07154555
v 0.01078070 -0.07648468 -0.06744424
v 0.01050519 -0.07680565 -0.06867464
v 0.01989523 -0.08665626 -0.07527674
v 0.01856263 -0.08652344 -0.07544679
v 0.01789915 -0.08693296 -0.07665718
v 0.01723003 -0.08616926 -0.07599697
v 0.01451423 -0.08266067 -0.07315606
v -0.00946131 -0.02831631 -0.02226984
v 0.00882397 -0.07244482 -0.06352299
v 0.00893643 -0.07033081 -0.05971178
v 0.00733394 -0.06797331 -0.05834134
v 0.00664796 -0.06664514 -0.05724099
v -0.00925327 -0.02854874 -0.02226984
v 0.01989523 -0.08485216 -0.07313606
v 0.01989523 -0.08584829 -0.07427642
v 0.01690391 -0.06635737 -0.05366985
v 0.01589744 -0.06651232 -0.05352981
v 0.01589744 -0.06750845 -0.05448011
v 0.01589744 -0.06854885 -0.05548043
v 0.01390135 -0.06667834 -0.05334975
v 0.01789915 -0.07644040 -0.06359301
v 0.01789915 -0.07741440 -0.06467336
v 0.01823651 -0.06595891 -0.05397995
v 0.01190526 -0.03216801 -0.02226984
v 0.00914447 -0.07409397 -0.06632389
v 0.01255188 -0.07865402 -0.06867464
v 0.01155102 -0.07780178 -0.06867464
v 0.01288925 -0.07836625 -0.06765431
v 0.01123053 -0.07610836 -0.06611382
v 0.01589744 -0.07823344 -0.06582373
v 0.01681395 -0.08440943 -0.07359621
v 0.01589744 -0.07903034 -0.06682404
v 0.01390135 -0.07691633 -0.06496345
v 0.01390135 -0.07791246 -0.06630388
v 0.01390135 -0.07863189 -0.06730420
v 0.01090440 -0.07435960 -0.06367304
v 0.01059515 -0.07258870 -0.06136230
v 0.00866654 -0.06854885 -0.05741104
v 0.00708091 -0.06619134 -0.05590056
v -0.00719533 -0.03047459 -0.02226984
v 0.01789915 -0.07833305 -0.06569368
v 0.01645971 -0.07642933 -0.06360302
v 0.01502028 -0.06240605 -0.04962856
v 0.01390135 -0.06560473 -0.05234943
v 0.01190526 -0.06458647 -0.05145915
v 0.01190526 -0.06559367 -0.05241945
v 0.01190526 -0.06660086 -0.05341977
v 0.01390135 -0.06768554 -0.05437007
v 0.00990355 -0.05634074 -0.04370667
v 0.01390135 -0.06863739 -0.05537039
v 0.00586077 -0.03307560 -0.02226984
v 0.01327160 -0.06042486 -0.04759792
v 0.01256313 -0.07658429 -0.06534357
v 0.01583558 -0.07710449 -0.06450331
v 0.01512711 -0.07631865 -0.06372306
v 0.01390135 -0.07614156 -0.06396313
v 0.01123615 -0.07027547 -0.05779117
v 0.01026903 -0.07076247 -0.05912159
v 0.00952120 -0.06806185 -0.05607062
v 0.00841351 -0.06673368 -0.05520034
v -0.00649811 -0.03097266 -0.02226984
v 0.01190526 -0.06850458 -0.05551044
v 0.01469978 -0.07440387 -0.06162239
v 0.01390135 -0.06249460 -0.04954854
v 0.00390404 -0.03326375 -0.02226984
v -0.00005440 -0.03305346 -0.02226984
v -0.00175810 -0.03280996 -0.02226984
v 0.01064013 -0.06644591 -0.05356982
v 0.01190526 -0.06759699 -0.05451012
v -0.00220792 -0.03272142 -0.02226984
v 0.00190233 -0.03320841 -0.02226984
v 0.00429201 -0.03323055 -0.02226984
v 0.01256875 -0.07044149 -0.05758110
v 0.01085380 -0.06837176 -0.05565048
v 0.01337281 -0.07424892 -0.06182245
v 0.00930191 -0.06619134 -0.05386991
v -0.00606515 -0.03118295 -0.02226984
v -0.00310757 -0.03244471 -0.02226984
v -0.00409718 -0.03213481 -0.02226984
f 1 2 5
f 1 5 11
f 1 11 27
f 1 27 26
f 1 26 25
f 1 25 24
f 1 24 23
f 1 23 45
f 1 45 66
f 1 66 95
f 1 95 94
f 1 94 130
f 1 130 129
f 1 129 167
f 1 167 166
f 1 166 201
f 1 201 228
f 1 228 199
f 1 199 198
f 1 198 197
f 1 197 227
f 1 227 258
f 1 258 280
f 1 280 303
f 1 303 333
f 1 333 332
f 1 332 331
f 1 331 360
f 1 360 397
f 1 397 441
f 1 441 469
f 1 469 499
f 1 499 531
f 1 531 536
f 1 536 563
f 1 563 584
f 1 584 600
f 1 600 602
f 1 602 601
f 1 601 593
f 1 593 590
f 1 590 589
f 1 589 594
f 1 594 588
f 1 588 595
f 1 595 574
f 1 574 547
f 1 547 519
f 1 519 504
f 1 504 475
f 1 475 474
f 1 474 472
f 1 472 442
f 1 442 401
f 1 401 363
f 1 363 337
f 1 337 304
f 1 304 281
f 1 281 259
f 1 259 230
f 1 230 203
f 1 203 171
f 1 171 134
f 1 134 131
f 1 131 97
f 1 97 67
f 1 67 46
f 1 46 28
f 1 28 12
f 1 12 6
f 1 6 3
f 1 3 4
f 1 4 2
f 2 4 5
f 3 6 4
f 4 6 7
f 4 7 8
f 4 8 9
f 4 9 10
f 4 10 11
f 4 11 5
f 6 12 13
f 6 13 14
f 6 14 7
f 7 14 13
f 7 13 8
f 8 13 15
f 8 15 16
f 8 16 17
f 8 17 9
f 9 17 18
f 9 18 19
f 9 19 20
f 9 20 10
f 10 20 21
f 10 21 22
f 10 22 23
f 10 23 24
f 10 24 25
f 10 25 26
f 10 26 27
f 10 27 11
f 12 28 29
f 12 29 30
f 12 30 31
f 12 31 13
f 13 31 32
f 13 32 33
f 13 33 34
f 13 34 15
f 15 34 16
f 16 34 35
f 16 35 17
f 17 35 18
f 18 36 19
f 18 35 37
f 18 37 38
f 18 38 39
f 18 39 36
f 19 36 20
f 20 36 40
f 20 40 21
f 21 40 41
f 21 41 42
f 21 42 43
f 21 43 44
f 21 44 22
f 22 44 45
f 22 45 23
f 28 46 47
f 28 47 48
f 28 48 29
f 29 48 47
f 29 47 49
f 29 49 50
f 29 50 30
f 30 33 32
f 30 32 31
f 30 50 51
f 30 51 33
f 33 51 52
f 33 52 35
f 33 35 34
f 35 52 37
f 36 39 53
f 36 53 54
f 36 54 55
f 36 55 40
f 37 52 38
f 38 56 57
f 38 57 58
f 38 58 39
f 38 52 56
f 39 58 53
f 40 55 59
f 40 59 41
f 41 60 42
f 41 59 61
f 41 61 60
f 42 60 62
f 42 62 63
f 42 63 64
f 42 64 65
f 42 65 43
f 43 65 66
f 43 66 45
f 43 45 44
f 46 67 68
f 46 68 49
f 46 49 47
f 49 68 69
f 49 69 50
f 50 69 70
f 50 70 71
f 50 71 72
f 50 72 51
f 51 72 73
f 51 73 74
f 51 74 52
f 52 74 56
f 53 58 75
f 53 75 54
f 54 75 76
f 54 76 77
f 54 77 78
f 54 78 55
f 55 78 79
f 55 79 80
f 55 80 81
f 55 81 59
f 56 74 73
f 56 73 57
f 57 82 83
f 57 83 75
f 57 75 58
f 57 73 84
f 57 84 85
f 57 85 86
f 57 86 87
f 57 87 82
f 59 81 61
f 60 88 62
f 60 61 88
f 61 81 89
f 61 89 90
f 61 90 91
f 61 91 88
f 62 88 92
f 62 92 63
f 63 92 64
f 64 92 93
f 64 93 65
f 65 93 94
f 65 94 95
f 65 95 66
f 67 96 68
f 67 97 98
f 67 98 99
f 67 99 100
f 67 100 96
f 68 96 101
f 68 101 102
f 68 102 69
f 69 102 70
f 70 102 103
f 70 103 71
f 71 103 104
f 71 104 73
f 71 73 72
f 73 104 84
f 75 83 76
f 76 83 77
f 77 83 105
f 77 105 106
f 77 106 78
f 78 107 79
f 78 106 107
f 79 107 108
f 79 108 109
f 79 109 110
f 79 110 111
f 79 111 112
f 79 112 89
f 79 89 81
f 79 81 80
f 82 87 113
f 82 113 105
f 82 105 83
f 84 104 103
f 84 103 114
f 84 114 115
f 84 115 85
f 85 115 116
f 85 116 86
f 86 116 87
f 87 116 117
f 87 117 113
f 88 118 92
f 88 91 118
f 89 112 119
f 89 119 120
f 89 120 121
f 89 121 90
f 90 121 122
f 90 122 123
f 90 123 91
f 91 124 118
f 91 123 124
f 92 118 125
f 92 125 126
f 92 126 127
f 92 127 128
f 92 128 93
f 93 128 129
f 93 129 130
f 93 130 94
f 96 100 101
f 97 131 98
f 98 132 133
f 98 133 99
f 98 131 134
f 98 134 132
f 99 135 136
f 99 136 100
f 99 133 137
f 99 137 138
f 99 138 135
f 100 136 102
f 100 102 101
f 102 136 135
f 102 135 103
f 103 135 139
f 103 139 114
f 105 113 140
f 105 140 141
f 105 141 106
f 106 141 142
f 106 142 143
f 106 143 109
f 106 109 108
f 106 108 107
f 109 143 110
f 110 143 144
f 110 144 142
f 110 142 145
f 110 145 111
f 111 145 146
f 111 146 112
f 112 146 119
f 113 117 148
f 113 148 140
f 114 139 147
f 114 147 115
f 115 147 116
f 116 148 117
f 116 147 149
f 116 149 150
f 116 150 151
f 116 151 148
f 118 152 125
f 118 124 123
f 118 123 152
f 119 146 153
f 119 153 120
f 120 153 154
f 120 154 121
f 121 154 155
f 121 155 123
f 121 123 122
f 123 156 152
f 123 155 157
f 123 157 158
f 123 158 159
f 123 159 160
f 123 160 161
f 123 161 162
f 123 162 156
f 125 152 163
f 125 163 164
f 125 164 126
f 126 128 127
f 126 164 165
f 126 165 166
f 126 166 167
f 126 167 128
f 128 167 129
f 132 168 169
f 132 169 170
f 132 170 137
f 132 137 133
f 132 134 168
f 134 171 168
f 135 138 172
f 135 172 139
f 137 170 173
f 137 173 174
f 137 174 175
f 137 175 138
f 138 175 172
f 139 172 176
f 139 176 147
f 140 148 177
f 140 177 142
f 140 142 141
f 142 144 143
f 142 177 178
f 142 178 179
f 142 179 180
f 142 180 145
f 145 181 146
f 145 180 181
f 146 181 153
f 147 176 172
f 147 172 182
f 147 182 183
f 147 183 149
f 148 151 177
f 149 183 150
f 150 183 184
f 150 184 185
f 150 185 186
f 150 186 151
f 151 186 177
f 152 162 163
f 152 156 162
f 153 181 180
f 153 180 187
f 153 187 154
f 154 187 188
f 154 188 155
f 155 188 189
f 155 189 157
f 157 189 158
f 158 189 190
f 158 190 191
f 158 191 159
f 159 191 160
f 160 191 192
f 160 192 161
f 161 192 193
f 161 193 194
f 161 194 195
f 161 195 196
f 161 196 197
f 161 197 198
f 161 198 199
f 161 199 200
f 161 200 162
f 162 200 165
f 162 165 164
f 162 164 163
f 165 200 166
f 166 200 201
f 168 202 169
f 168 171 202
f 169 202 173
f 169 173 170
f 171 203 202
f 172 175 174
f 172 174 204
f 172 204 205
f 172 205 183
f 172 183 182
f 173 202 206
f 173 206 207
f 173 207 174
f 174 207 208
f 174 208 204
f 177 186 178
f 178 186 209
f 178 209 179
f 179 209 210
f 179 210 180
f 180 210 211
f 180 211 212
f 180 212 187
f 183 205 213
f 183 213 214
f 183 214 184
f 184 214 215
f 184 215 216
f 184 216 185
f 185 216 209
f 185 209 186
f 187 212 188
f 188 212 211
f 188 211 217
f 188 217 218
f 188 218 219
f 188 219 220
f 188 220 189
f 189 220 190
f 190 220 221
f 190 221 192
f 190 192 191
f 192 221 222
f 192 222 193
f 193 222 223
f 193 223 194
f 194 224 195
f 194 223 224
f 195 224 225
f 195 225 226
f 195 226 227
f 195 227 197
f 195 197 196
f 199 228 200
f 200 228 201
f 202 229 206
f 202 203 229
f 203 230 231
f 203 231 229
f 204 208 232
f 204 232 213
f 204 213 205
f 206 229 231
f 206 231 233
f 206 233 207
f 207 234 235
f 207 235 236
f 207 236 237
f 207 237 208
f 207 233 231
f 207 231 234
f 208 237 232
f 209 216 238
f 209 238 210
f 210 238 239
f 210 239 211
f 211 239 217
f 213 232 240
f 213 240 241
f 213 241 242
f 213 242 214
f 214 242 243
f 214 243 244
f 214 244 245
f 214 245 215
f 215 246 238
f 215 238 216
f 215 245 247
f 215 247 246
f 217 239 248
f 217 248 219
f 217 219 218
f 219 248 249
f 219 249 250
f 219 250 251
f 219 251 220
f 220 251 221
f 221 251 252
f 221 252 253
f 221 253 222
f 222 253 223
f 223 253 254
f 223 254 224
f 224 254 225
f 225 255 256
f 225 256 257
f 225 257 226
f 225 254 255
f 226 257 227
f 227 257 258
f 230 259 260
f 230 260 231
f 231 260 234
f 232 237 240
f 234 261 262
f 234 262 263
f 234 263 235
f 234 260 259
f 234 259 261
f 235 263 264
f 235 264 236
f 236 264 265
f 236 265 266
f 236 266 267
f 236 267 241
f 236 241 240
f 236 240 237
f 238 246 268
f 238 268 239
f 239 268 248
f 241 267 269
f 241 269 243
f 241 243 242
f 243 269 270
f 243 270 244
f 244 270 245
f 245 270 247
f 246 247 268
f 247 270 271
f 247 271 272
f 247 272 268
f 248 268 249
f 249 268 273
f 249 273 274
f 249 274 250
f 250 274 293
f 250 293 275
f 250 275 276
f 250 276 252
f 250 252 251
f 252 276 253
f 253 276 254
f 254 276 277
f 254 277 255
f 255 277 278
f 255 278 257
f 255 257 256
f 257 279 280
f 257 280 258
f 257 278 279
f 259 281 282
f 259 282 261
f 261 282 262
f 262 282 283
f 262 283 284
f 262 284 263
f 263 284 285
f 263 285 286
f 263 286 264
f 264 286 265
f 265 286 266
f 266 286 287
f 266 287 269
f 266 269 267
f 268 272 274
f 268 274 273
f 269 287 270
f 270 287 288
f 270 288 271
f 271 288 289
f 271 289 290
f 271 290 291
f 271 291 292
f 271 292 272
f 272 292 274
f 274 292 293
f 275 293 294
f 275 294 295
f 275 295 296
f 275 296 276
f 276 297 277
f 276 296 298
f 276 298 297
f 277 297 299
f 277 299 300
f 277 300 278
f 278 300 301
f 278 301 302
f 278 302 279
f 279 302 280
f 280 302 303
f 281 304 305
f 281 305 306
f 281 306 282
f 282 306 283
f 283 306 307
f 283 307 340
f 283 340 308
f 283 308 284
f 284 308 309
f 284 309 310
f 284 310 311
f 284 311 287
f 284 287 286
f 284 286 285
f 287 311 310
f 287 310 312
f 287 312 288
f 288 312 313
f 288 313 289
f 289 314 315
f 289 315 290
f 289 313 314
f 290 315 291
f 291 315 316
f 291 316 317
f 291 317 318
f 291 318 293
f 291 293 292
f 293 318 319
f 293 319 294
f 294 319 320
f 294 320 296
f 294 296 295
f 296 320 298
f 297 321 322
f 297 322 299
f 297 298 323
f 297 323 324
f 297 324 325
f 297 325 321
f 298 320 326
f 298 326 327
f 298 327 323
f 299 322 328
f 299 328 329
f 299 329 300
f 300 329 330
f 300 330 301
f 301 330 302
f 302 331 332
f 302 332 333
f 302 333 303
f 302 330 334
f 302 334 335
f 302 335 336
f 302 336 331
f 304 337 305
f 305 338 306
f 305 337 338
f 306 338 307
f 307 338 339
f 307 339 340
f 308 340 309
f 309 340 310
f 310 341 342
f 310 342 343
f 310 343 314
f 310 314 312
f 310 340 344
f 310 344 341
f 312 314 313
f 314 345 346
f 314 346 315
f 314 343 345
f 315 346 347
f 315 347 316
f 316 347 348
f 316 348 317
f 317 348 349
f 317 349 350
f 317 350 319
f 317 319 318
f 319 350 351
f 319 351 352
f 319 352 326
f 319 326 320
f 321 353 354
f 321 354 322
f 321 325 355
f 321 355 353
f 322 354 328
f 323 327 324
f 324 327 352
f 324 352 356
f 324 356 357
f 324 357 325
f 325 357 355
f 326 352 327
f 328 358 359
f 328 359 335
f 328 335 334
f 328 334 329
f 328 354 358
f 329 334 330
f 331 336 360
f 335 359 361
f 335 361 336
f 336 361 362
f 336 362 360
f 337 363 338
f 338 364 339
f 338 363 364
f 339 364 365
f 339 365 340
f 340 366 344
f 340 365 367
f 340 367 366
f 341 344 368
f 341 368 369
f 341 369 370
f 341 370 371
f 341 371 372
f 341 372 373
f 341 373 374
f 341 374 342
f 342 375 376
f 342 376 377
f 342 377 378
f 342 378 343
f 342 374 379
f 342 379 375
f 343 378 377
f 343 377 345
f 344 366 369
f 344 369 368
f 345 377 346
f 346 377 380
f 346 380 381
f 346 381 382
f 346 382 347
f 347 382 383
f 347 383 384
f 347 384 385
f 347 385 349
f 347 349 348
f 349 351 350
f 349 385 386
f 349 386 352
f 349 352 351
f 352 386 356
f 353 355 387
f 353 387 388
f 353 388 389
f 353 389 354
f 354 389 390
f 354 390 358
f 355 357 391
f 355 391 392
f 355 392 393
f 355 393 394
f 355 394 387
f 356 386 395
f 356 395 396
f 356 396 391
f 356 391 357
f 358 390 361
f 358 361 359
f 360 362 397
f 361 390 398
f 361 398 399
f 361 399 362
f 362 399 400
f 362 400 397
f 363 401 402
f 363 402 403
f 363 403 364
f 364 403 404
f 364 404 365
f 365 404 367
f 366 367 369
f 367 404 370
f 367 370 369
f 370 404 405
f 370 405 371
f 371 405 372
f 372 406 407
f 372 407 408
f 372 408 373
f 372 405 402
f 372 402 401
f 372 401 406
f 373 408 374
f 374 408 379
f 375 409 410
f 375 410 411
f 375 411 412
f 375 412 381
f 375 381 413
f 375 413 377
f 375 377 376
f 375 379 414
f 375 414 415
f 375 415 416
f 375 416 409
f 377 413 380
f 379 408 417
f 379 417 418
f 379 418 419
f 379 419 414
f 380 413 381
f 381 412 420
f 381 420 382
f 382 420 383
f 383 421 422
f 383 422 423
f 383 423 384
f 383 420 454
f 383 454 424
f 383 424 421
f 384 423 385
f 385 423 425
f 385 425 426
f 385 426 386
f 386 426 395
f 387 427 428
f 387 428 429
f 387 429 388
f 387 394 427
f 388 429 398
f 388 398 389
f 389 398 390
f 391 396 392
f 392 430 393
f 392 396 430
f 393 430 431
f 393 431 432
f 393 432 427
f 393 427 394
f 395 426 396
f 396 426 425
f 396 425 433
f 396 433 434
f 396 434 435
f 396 435 436
f 396 436 437
f 396 437 438
f 396 438 439
f 396 439 440
f 396 440 430
f 397 400 428
f 397 428 441
f 398 429 400
f 398 400 399
f 400 429 428
f 401 442 443
f 401 443 444
f 401 444 406
f 402 405 403
f 403 405 404
f 406 444 407
f 407 443 408
f 407 444 443
f 408 443 418
f 408 418 417
f 409 416 445
f 409 445 410
f 410 446 412
f 410 412 411
f 410 445 446
f 412 446 420
f 414 419 443
f 414 443 447
f 414 447 415
f 415 447 448
f 415 448 449
f 415 449 450
f 415 450 451
f 415 451 416
f 416 451 452
f 416 452 453
f 416 453 445
f 418 443 419
f 420 446 454
f 421 423 422
f 421 424 433
f 421 433 423
f 423 433 425
f 424 455 433
f 424 454 446
f 424 446 456
f 424 456 455
f 427 432 457
f 427 457 458
f 427 458 459
f 427 459 428
f 428 459 441
f 430 440 431
f 431 440 438
f 431 438 460
f 431 460 432
f 432 461 457
f 432 460 461
f 433 455 456
f 433 456 462
f 433 462 463
f 433 463 464
f 433 464 434
f 434 464 465
f 434 465 435
f 435 465 466
f 435 466 467
f 435 467 460
f 435 460 468
f 435 468 436
f 436 468 437
f 437 468 438
f 438 440 439
f 438 468 460
f 441 459 470
f 441 470 471
f 441 471 469
f 442 472 443
f 443 473 447
f 443 472 474
f 443 474 475
f 443 475 473
f 445 453 452
f 445 452 476
f 445 476 477
f 445 477 478
f 445 478 479
f 445 479 446
f 446 479 480
f 446 480 456
f 447 473 481
f 447 481 482
f 447 482 448
f 448 482 449
f 449 482 483
f 449 483 450
f 450 484 485
f 450 485 451
f 450 483 486
f 450 486 484
f 451 485 476
f 451 476 452
f 456 480 462
f 457 461 458
f 458 461 487
f 458 487 488
f 458 488 489
f 458 489 459
f 459 489 470
f 460 467 490
f 460 490 491
f 460 491 492
f 460 492 461
f 461 492 493
f 461 493 487
f 462 480 494
f 462 494 495
f 462 495 463
f 463 495 496
f 463 496 465
f 463 465 464
f 465 496 497
f 465 497 466
f 466 497 498
f 466 498 490
f 466 490 467
f 469 471 500
f 469 500 499
f 470 489 471
f 471 489 488
f 471 488 501
f 471 501 502
f 471 502 500
f 473 503 482
f 473 482 481
f 473 475 503
f 475 504 486
f 475 486 503
f 476 485 505
f 476 505 477
f 477 506 507
f 477 507 478
f 477 505 508
f 477 508 509
f 477 509 510
f 477 510 506
f 478 511 479
f 478 507 512
f 478 512 511
f 479 511 513
f 479 513 514
f 479 514 480
f 480 514 494
f 482 503 515
f 482 515 483
f 483 515 486
f 484 486 516
f 484 516 485
f 485 508 505
f 485 516 517
f 485 517 508
f 486 518 516
f 486 515 503
f 486 504 519
f 486 519 518
f 487 493 520
f 487 520 521
f 487 521 488
f 488 500 502
f 488 502 501
f 488 521 520
f 488 520 522
f 488 522 500
f 490 498 523
f 490 523 491
f 491 523 524
f 491 524 525
f 491 525 493
f 491 493 492
f 493 525 520
f 494 514 513
f 494 513 511
f 494 511 526
f 494 526 527
f 494 527 495
f 495 527 528
f 495 528 496
f 496 528 529
f 496 529 497
f 497 529 530
f 497 530 498
f 498 530 523
f 499 500 531
f 500 522 532
f 500 532 533
f 500 533 534
f 500 534 535
f 500 535 536
f 500 536 531
f 506 510 507
f 507 510 537
f 507 537 538
f 507 538 512
f 508 517 509
f 509 517 510
f 510 517 539
f 510 539 540
f 510 540 541
f 510 541 542
f 510 542 543
f 510 543 544
f 510 544 545
f 510 545 537
f 511 512 538
f 511 538 526
f 516 518 546
f 516 546 517
f 517 546 539
f 518 519 546
f 519 547 539
f 519 539 546
f 520 548 522
f 520 525 548
f 522 548 525
f 522 525 532
f 523 549 550
f 523 550 524
f 523 530 549
f 524 550 549
f 524 549 551
f 524 551 552
f 524 552 533
f 524 533 532
f 524 532 525
f 526 538 553
f 526 553 527
f 527 554 529
f 527 529 528
f 527 553 555
f 527 555 556
f 527 556 557
f 527 557 558
f 527 558 554
f 529 554 551
f 529 551 530
f 530 551 549
f 533 552 559
f 533 559 560
f 533 560 561
f 533 561 562
f 533 562 535
f 533 535 534
f 535 562 536
f 536 562 563
f 537 545 564
f 537 564 538
f 538 564 565
f 538 565 553
f 539 566 540
f 539 547 566
f 540 566 567
f 540 567 543
f 540 543 541
f 541 543 542
f 543 568 569
f 543 569 570
f 543 570 571
f 543 571 544
f 543 567 572
f 543 572 568
f 544 565 545
f 544 571 573
f 544 573 565
f 545 565 564
f 547 574 575
f 547 575 566
f 551 558 576
f 551 576 559
f 551 559 552
f 551 554 558
f 553 565 577
f 553 577 578
f 553 578 579
f 553 579 555
f 555 579 556
f 556 579 580
f 556 580 576
f 556 576 557
f 557 576 558
f 559 576 560
f 560 581 561
f 560 576 581
f 561 582 583
f 561 583 563
f 561 563 562
f 561 581 582
f 563 583 584
f 565 573 585
f 565 585 586
f 565 586 578
f 565 578 577
f 566 575 587
f 566 587 567
f 567 587 575
f 567 575 588
f 567 588 572
f 568 572 569
f 569 572 589
f 569 589 590
f 569 590 570
f 570 591 592
f 570 592 573
f 570 573 571
f 570 590 593
f 570 593 591
f 572 588 594
f 572 594 589
f 573 592 585
f 574 595 575
f 575 595 588
f 576 580 581
f 578 586 585
f 578 585 596
f 578 596 597
f 578 597 598
f 578 598 579
f 579 598 580
f 580 597 599
f 580 599 582
f 580 582 581
f 580 598 597
f 582 599 583
f 583 599 584
f 584 599 600
f 585 592 591
f 585 591 597
f 585 597 596
f 591 599 597
f 591 593 601
f 591 601 602
f 591 602 599
f 599 602 600

